<svg width="230" height="209" viewBox="0 0 230 209" fill="none" xmlns="http://www.w3.org/2000/svg">
<path d="M95.0823 112.361C95.0823 112.361 90.2587 163.296 94.231 165.572C98.2034 167.849 102.034 170.125 105.864 168.418C109.695 166.711 105.439 119.19 111.965 117.483C118.349 115.918 121.044 118.621 121.044 118.621C121.044 118.621 120.051 167.28 122.747 166.711C125.584 166.141 133.813 169.272 133.387 164.576C132.961 159.739 139.345 111.08 133.387 105.674C127.57 100.694 95.0823 112.361 95.0823 112.361Z" fill="#BE6028"/>
<path d="M64.864 158.174L109.695 169.698L230 146.507C230 146.507 221.913 208.824 108.56 208.824C-4.79388 208.824 0.029672 146.507 0.029672 146.507L64.864 158.174Z" fill="#F9E27B"/>
<path d="M72.6667 130.999C72.6667 130.999 75.2204 148.641 75.2204 156.893C75.2204 165.145 73.518 176.243 75.2204 175.958C76.9228 175.674 84.7257 177.665 86.9956 174.535C89.1236 171.263 86.4281 149.922 84.8675 144.373C83.1651 138.966 86.57 133.702 91.2516 131.995C95.7915 130.287 99.0545 132.848 99.0545 139.82C99.0545 146.791 99.6219 151.344 99.0545 156.324C98.487 161.588 97.352 169.982 99.3382 171.974C101.324 173.966 110.83 174.535 110.404 171.974C109.978 169.413 109.269 122.035 103.452 118.336C97.352 114.637 72.6667 130.999 72.6667 130.999Z" fill="#F1B61C"/>
<path d="M179.92 126.873C179.92 126.873 179.92 127.869 179.92 130.145C179.92 132.422 180.204 134.983 182.048 134.983C184.035 134.983 182.048 131.995 182.048 131.995C182.048 131.995 184.602 133.56 184.886 136.121C185.169 138.682 190.844 139.962 190.277 136.121C189.709 132.279 189 125.735 185.028 125.308C181.197 124.881 179.92 126.873 179.92 126.873Z" fill="#D66E27"/>
<path d="M66.4245 68.6821C66.4245 68.6821 56.4936 75.5114 56.2099 78.2147C55.9261 80.9179 67.4176 84.7594 68.8363 82.7675C70.3968 80.7756 74.511 71.5277 73.3761 70.1049C72.383 68.6821 66.4245 68.6821 66.4245 68.6821Z" fill="#F1B61C"/>
<path d="M138.494 173.255C138.494 173.255 135.515 177.381 130.266 177.666C125.016 177.95 124.165 179.658 123.598 180.938C123.03 182.219 120.193 189.048 134.664 186.202C149.134 183.357 147.29 180.085 147.29 180.085C147.29 180.085 145.871 172.117 144.736 172.117C143.318 172.117 138.494 173.255 138.494 173.255Z" fill="#6B3E1E"/>
<path d="M157.505 180.226C152.539 183.641 152.114 189.332 155.518 189.617C158.923 189.901 167.01 192.889 168.712 187.909C170.415 182.93 169.989 176.812 169.989 176.812L168.003 171.121L161.761 172.259C161.761 172.259 162.612 175.247 161.193 176.669C159.775 178.377 157.505 180.226 157.505 180.226Z" fill="#6B3E1E"/>
<path d="M108.276 53.0316C108.276 53.0316 112.532 51.6089 115.086 51.6089C117.639 51.6089 121.044 53.0316 121.044 53.0316C121.044 53.0316 121.47 54.739 124.733 54.739C127.996 54.739 129.982 52.3203 137.643 56.1617C145.162 59.8609 176.373 76.0804 176.373 76.0804C176.373 76.0804 170.982 78.2146 160.768 77.6455C150.553 76.9341 131.968 66.9747 131.968 66.9747C131.968 66.9747 136.366 97.5641 136.366 104.82C136.366 111.934 126.435 113.926 126.435 113.926L113.667 111.507L102.885 114.78L92.9542 105.674C92.9542 105.674 91.3936 90.1658 95.0822 80.6333C98.7708 71.1008 99.9057 64.1292 99.9057 64.1292C99.9057 64.1292 88.8399 77.0764 83.5908 77.0764C78.3416 77.0764 73.6599 65.9788 73.6599 65.9788C73.6599 65.9788 99.4801 53.0316 102.601 53.0316C106.006 53.0316 107.283 54.3121 108.276 53.0316Z" fill="#F1B61C"/>
<path d="M70.5388 71.6698C70.5388 71.6698 50.5352 74.0885 56.0681 103.255C61.7429 132.422 62.7359 127.869 62.7359 127.869C62.7359 127.869 70.1132 126.162 70.5388 123.032C70.9644 119.901 61.1754 98.4178 65.2896 93.4381C69.4038 88.6007 66.5664 127.584 69.1201 130.145C71.6737 132.706 104.446 127.727 106.006 121.751C107.709 115.918 85.5769 69.1088 80.6115 69.3934C75.5042 69.5357 71.8156 71.3853 70.5388 71.6698Z" fill="#D66E27"/>
<path d="M96.2171 34.9623C96.2171 34.9623 97.2102 41.2225 99.622 43.9257C102.176 46.4867 105.013 48.9054 105.013 48.9054C105.013 48.9054 104.162 46.3444 105.864 46.4867C107.567 46.629 105.155 47.1981 107.425 48.6209C109.553 49.9014 116.504 51.8932 122.179 49.0477C127.854 46.2022 132.961 43.7835 133.245 40.9379C133.529 38.0924 140.338 27.7062 135.231 23.5802C131.826 20.7347 107.141 16.4664 96.6427 20.7347C91.6773 22.5843 96.2171 34.9623 96.2171 34.9623Z" fill="#9A4C24"/>
<path d="M45.8535 68.6819C45.8535 68.6819 54.0819 77.2185 69.5457 69.8201C72.3831 68.3974 77.6323 68.6819 77.6323 68.6819C77.6323 68.6819 87.1375 66.2632 91.8192 62.1372C95.6497 58.7226 95.0822 54.0275 95.0822 47.0559L73.6599 59.1494L45.8535 68.6819Z" fill="#9A4C24"/>
<path d="M51.6701 80.6332C50.5351 83.9055 46.4209 87.0356 51.6701 89.312C56.9192 91.4462 56.9193 88.4584 56.9193 86.7511C56.9193 85.0437 60.6079 88.1738 61.0335 84.3323C61.3172 80.6332 58.4798 74.373 55.2168 77.6454C51.6701 80.7754 51.6701 80.6332 51.6701 80.6332Z" fill="#FBDA37"/>
<path d="M69.9715 68.6819C69.9715 68.6819 68.269 74.9421 69.9715 75.5112C71.6739 76.2226 75.3625 76.934 77.7743 75.5112C80.1861 74.0884 74.0857 71.3852 76.0719 67.2591C77.9162 63.2754 69.9715 68.6819 69.9715 68.6819Z" fill="#E7D170"/>
<path d="M118.774 65.6946H112.958V71.2433H107.283V77.0767H112.958V82.7677H118.774V77.0767H124.307V71.2433H118.774V65.6946Z" fill="#D66E27"/>
<path d="M147.432 56.304C147.432 56.304 146.439 58.865 147.148 60.7146C150.553 66.5479 155.802 70.1048 163.179 70.1048C173.11 62.8487 173.11 57.4422 173.962 49.7593C174.671 44.3528 169.705 35.1048 166.301 29.556C165.308 29.4138 164.173 29.2715 163.321 29.2715C160.342 29.2715 157.363 29.9829 154.809 31.2634C151.83 35.3894 148.709 40.2268 147.858 43.3569C146.155 50.0438 146.439 52.8894 146.439 52.8894" fill="#D66E27"/>
<path d="M165.733 29.5557C168.996 34.9622 174.104 44.3524 173.394 49.7589C172.401 57.4418 172.401 62.9906 162.612 70.1044H162.754C173.962 70.1044 183.041 60.9987 183.041 49.7589C183.041 39.3727 175.38 30.8362 165.733 29.5557Z" fill="#BE6028"/>
<path d="M118.349 51.3248C117.356 51.6093 116.221 51.7516 114.235 51.6093C112.532 51.6093 111.255 51.3248 110.404 50.8979C110.12 52.3207 109.979 53.7435 110.546 54.1703C112.248 55.4508 116.93 57.8695 118.349 54.1703C118.774 53.4589 118.774 52.463 118.349 51.3248Z" fill="#FBDA37"/>
<path d="M118.349 51.3247C117.781 48.0523 115.369 44.6377 115.369 44.6377H112.816C112.816 44.6377 111.113 48.0523 110.688 50.8979C111.681 51.3247 112.816 51.467 114.518 51.6092C116.221 51.7515 117.497 51.6092 118.349 51.3247Z" fill="#DBB82A"/>
<path d="M145.871 31.5481C145.871 31.5481 141.048 34.8204 147.999 35.2472C154.809 35.5318 159.207 32.6863 160.626 31.5481C162.045 30.4098 163.605 36.9546 167.294 36.9546C170.982 36.9546 173.252 40.2269 174.245 36.9546C175.238 33.6822 173.394 43.2147 177.083 44.7798C180.771 46.3448 175.806 53.0318 177.083 54.3123C178.359 55.5928 174.529 60.4302 177.083 60.4302C179.636 60.4302 186.162 55.5927 186.872 50.1862C187.723 44.922 184.744 41.7919 184.744 41.7919C184.744 41.7919 188.858 36.9546 186.872 33.3977C185.169 29.983 179.353 27.9911 179.353 27.9911C179.353 27.9911 179.778 23.1537 172.401 23.4383C165.166 23.7229 159.349 25.1456 159.349 25.1456C159.349 25.1456 157.221 21.8733 151.688 23.4383C146.297 25.0033 149.276 27.5643 149.276 27.5643L145.871 31.5481Z" fill="#9A4C24"/>
<path d="M104.587 20.45C107.425 25.2874 109.411 25.2874 109.411 25.2874C109.411 25.2874 109.269 15.3281 114.376 13.7631C117.639 12.9094 120.76 10.9175 122.605 9.49478C120.477 8.64113 117.781 8.07202 115.369 8.07202C112.532 8.07202 110.12 8.64112 107.566 9.63706C105.438 13.194 103.027 17.7468 104.587 20.45Z" fill="#DBB82A"/>
<path d="M122.605 9.21069C120.902 10.6335 117.639 10.2066 114.376 11.2026C109.127 12.6253 109.411 25.0034 109.411 25.0034C109.411 25.0034 107.283 25.1457 104.587 20.166C103.027 17.605 105.439 12.9099 107.85 9.35297C102.885 11.4871 98.7707 15.4709 96.7845 20.4505C96.9264 28.8448 98.3451 37.666 99.3382 40.6538C103.027 45.4912 108.843 48.7635 115.369 48.7635C119.767 48.7635 121.186 48.0521 126.151 45.4912C128.705 42.9302 130.266 40.6538 131.826 36.3855C132.961 33.1131 133.387 24.1497 133.529 19.0278C131.401 14.7595 127.428 11.0603 122.605 9.21069Z" fill="#FBDA37"/>
<path d="M95.5077 22.5844C98.3451 27.4218 100.331 27.4218 100.331 27.4218C100.331 27.4218 100.189 17.4624 105.297 15.8974C108.56 15.0437 111.681 13.0518 113.525 11.6291C111.397 10.7754 108.702 10.2063 106.29 10.2063C103.452 10.2063 101.041 10.7754 98.4869 11.7713C96.3589 15.3283 94.089 20.0234 95.5077 22.5844Z" fill="#DBB82A"/>
<path d="M95.7917 33.8243C95.7917 33.8243 90.5425 27.7065 92.1031 21.4463C93.5218 15.3284 89.2657 8.49917 97.9198 5.51137C106.574 2.66584 99.0547 -2.02927 115.512 0.958528C131.968 3.80405 128.138 12.1983 128.138 12.1983C128.138 12.1983 137.643 8.35689 137.643 16.7512C137.785 25.2878 140.197 27.8487 135.941 30.9788C131.685 34.2512 136.508 26.426 131.685 20.7349C126.861 15.0439 125.159 16.8935 125.159 16.8935C125.159 16.8935 123.031 7.07641 115.653 9.06827C108.418 11.0601 107.425 22.0154 107.425 22.0154C107.425 22.0154 103.595 21.304 103.311 17.0357C103.169 12.7675 97.3523 21.8731 99.6222 25.7146C102.034 29.8406 95.508 28.987 95.3661 27.1374C95.0824 25.1455 95.7917 33.8243 95.7917 33.8243Z" fill="#D66E27"/>
<path d="M107.283 6.93408C107.283 6.93408 103.452 12.6251 104.445 16.0398C105.58 19.3121 105.722 20.308 105.722 20.308C105.722 20.308 104.02 16.0398 105.722 12.4829C107.567 9.2105 107.283 6.93408 107.283 6.93408Z" fill="#F78D36"/>
<path d="M100.899 5.3689C100.899 5.3689 96.0752 7.50304 94.9402 9.49491C93.8053 11.6291 94.089 16.751 94.089 16.751C94.089 16.751 94.6565 11.9136 96.5008 10.2063C98.2032 8.64125 100.899 5.3689 100.899 5.3689Z" fill="#F78D36"/>
<path d="M60.7497 54.7392C56.9193 48.0522 58.1961 37.9506 59.7567 30.4099C53.3725 33.8245 49.1165 40.6538 49.1165 48.479C49.1165 59.7189 58.1961 68.8245 69.4038 68.8245C70.3969 68.8245 71.5318 68.6823 72.383 68.54C69.2619 65.8367 64.5802 61.4262 60.7497 54.7392Z" fill="#E7D170"/>
<path d="M84.7259 34.9627C81.0373 30.8367 75.6463 27.9912 69.404 27.9912C65.9991 27.9912 62.5943 28.8449 59.615 30.5522C57.9126 38.0928 56.7776 48.1944 60.6081 54.8814C64.4386 61.4261 69.1203 65.979 72.2414 68.6822C77.2068 67.9708 81.7466 65.4099 84.8678 61.5684C88.1308 54.0278 86.5702 42.7879 84.7259 34.9627Z" fill="#F8E289"/>
<path d="M137.785 126.446C137.785 126.446 130.833 165.999 137.501 172.117C144.027 178.235 146.155 172.117 146.155 172.117C146.155 172.117 143.318 134.983 151.404 134.698C159.491 134.414 160.484 135.125 160.484 135.125C160.484 135.125 155.235 172.686 161.051 174.82C166.868 176.954 170.415 174.678 170.415 174.678C170.415 174.678 176.515 132.422 172.117 127.727C168.003 123.174 137.785 126.446 137.785 126.446Z" fill="#BE6028"/>
<path d="M60.7496 26.8529C60.7496 26.8529 55.9261 21.8732 50.8188 27.8488C45.5696 33.8244 49.542 64.8407 38.3343 61.8529C27.1266 58.8651 45.5696 74.8 53.6562 70.9586C61.7427 67.1171 60.8915 66.8326 60.8915 66.8326C60.8915 66.8326 53.0887 62.2797 52.5212 59.5765C52.5212 59.5765 61.1753 55.1659 62.7358 42.7878C62.7358 38.5196 62.4521 31.6903 60.7496 26.7106C60.7496 26.8529 60.7496 26.8529 60.7496 26.8529Z" fill="#F78D36"/>
<path d="M95.082 47.1984C95.082 47.1984 90.9678 48.9057 89.8328 40.5114C88.556 31.8326 83.5906 16.7513 71.6736 21.1619C63.0195 24.1497 61.3171 25.9993 60.8915 26.8529C62.5939 32.1171 62.8777 38.6618 62.8777 42.9301C62.8777 42.6456 63.0195 42.2187 63.0195 41.9342C64.2963 28.8448 69.4036 33.2553 70.5386 33.8244C71.6736 34.6781 69.2618 27.7066 77.4902 29.6984C85.7186 31.6903 82.4556 51.8935 88.9816 53.0317C95.3657 53.8854 95.082 47.1984 95.082 47.1984Z" fill="#D66E27"/>
<path d="M159.349 74.2308C159.349 74.2308 145.304 78.0723 140.906 88.6007C136.366 98.9869 128.28 119.475 129.414 121.467C130.549 123.174 135.089 130.999 137.643 128.438C140.197 126.019 146.581 90.1658 149.134 90.1658C151.688 90.1658 131.826 125.308 135.657 127.158C139.487 128.865 141.473 134.129 159.775 131.71C177.934 129.292 176.231 126.019 176.231 126.019C176.231 126.019 168.996 92.1576 172.543 91.5885C175.948 91.0194 176.231 130.288 179.778 130.288C183.183 130.288 188.007 126.588 188.007 126.588C188.007 126.588 183.892 82.1983 178.076 78.2146C171.55 74.0885 159.349 74.2308 159.349 74.2308Z" fill="#6B3E1E"/>
<path d="M157.788 76.9342C156.37 75.5115 157.363 76.792 156.37 75.5115C159.207 73.8042 158.923 65.5522 159.207 64.2717C159.349 62.7066 165.307 67.544 165.307 67.544C165.591 66.2635 165.449 75.3692 165.024 74.8001C163.179 77.0765 160.484 79.4952 157.788 76.9342Z" fill="#D66E27"/>
<path d="M181.055 76.0806C181.055 76.0806 173.82 71.9546 172.969 76.0806C172.117 80.2066 163.889 88.1741 172.969 85.1863C182.048 82.3408 177.508 79.9221 177.508 79.9221C177.508 79.9221 172.685 88.8855 177.508 88.3164C182.332 87.7473 183.893 88.8855 183.609 85.044C183.467 81.2025 185.879 84.6172 181.055 76.0806Z" fill="#FBDA37"/>
<path d="M76.4976 172.117C76.4976 172.117 73.2346 180.227 76.4976 182.361C79.7606 184.495 77.3488 191.324 88.5565 188.052C99.7642 184.78 85.7191 173.54 85.7191 173.54L76.4976 172.117Z" fill="#BE6028"/>
<path d="M99.0545 172.117C99.0545 172.117 96.5009 175.958 99.0545 177.808C101.608 179.515 109.269 181.507 113.525 177.808C117.781 174.109 107.283 171.406 107.283 171.406L99.0545 172.117Z" fill="#BE6028"/>
<path d="M65.0058 127.015C65.0058 127.015 61.3172 128.58 65.0058 132.279C68.6944 135.979 70.3969 138.824 70.3969 138.824C70.3969 138.824 72.9505 135.552 72.383 130.999C71.6737 126.588 70.3969 123.031 70.3969 123.031L65.0058 127.015Z" fill="#F8E289"/>
<path d="M10.9537 142.381L25.5663 136.975L55.9263 142.381L43.1581 150.633L10.9537 142.381Z" fill="#F78D36"/>
<path d="M43.1581 150.633L10.9537 142.381L17.6216 161.304L44.7187 165.572L43.5837 150.348L43.1581 150.633Z" fill="#D66E27"/>
<path d="M43.5835 150.348L44.7185 165.572H45.1441L55.9261 159.312V142.381L43.5835 150.348Z" fill="#BE6028"/>
<path d="M224.183 132.137H207.585L190.56 146.507V147.503L207.585 147.788L224.183 132.137Z" fill="#F78D36"/>
<path d="M207.585 147.787L190.56 147.503V161.304L208.578 163.438L207.585 147.787Z" fill="#D66E27"/>
<path d="M224.609 132.137H224.183L207.584 147.788L208.578 163.438L224.609 147.503V132.137Z" fill="#BE6028"/>
</svg>
