<svg width="230" height="146" viewBox="0 0 230 146" fill="none" xmlns="http://www.w3.org/2000/svg">
<path d="M168.705 30.4016C168.705 21.2636 164.206 13.2502 157.318 8.18921C159.848 20.8418 163.503 50.7863 145.649 57.8155C158.723 55.4256 168.705 44.0382 168.705 30.4016Z" fill="#66C8CB"/>
<path d="M47.3808 37.0092C47.3808 37.0092 42.1791 40.6644 46.959 48.8183C52.0201 57.1128 58.6275 59.5028 56.7999 65.5479C54.8317 71.593 71.1396 67.0943 74.9353 65.5479C78.7311 64.0015 96.023 63.8609 96.023 65.5479C96.023 67.2349 104.317 57.2534 103.474 43.7573C102.49 30.2612 98.2724 17.1868 87.1662 18.7333C75.7788 20.2797 47.3808 37.0092 47.3808 37.0092Z" fill="#19403E"/>
<path d="M65.0945 95.2112L109.941 106.599L230 83.6833C230 83.6833 221.987 145.681 108.957 145.681C67.9062 145.681 42.3198 137.387 26.4338 126.983C-1.12079 108.707 0.566219 83.5427 0.566219 83.5427L65.0945 95.2112Z" fill="#94D3D2"/>
<path d="M102.209 30.4016C102.209 14.9373 89.6969 2.42529 74.2326 2.42529C65.5163 2.42529 57.9248 6.64284 52.7231 12.8286L76.0602 23.6536L83.0894 30.4016C83.0894 30.4016 91.8056 43.0542 91.8056 51.7704C97.9913 46.85 102.209 39.1178 102.209 30.4016Z" fill="#94D3D2"/>
<path d="M82.9487 61.8928C82.9487 61.8928 105.583 53.8794 100.944 76.373C96.3042 99.0071 79.8559 106.739 79.8559 106.739L72.2643 102.522C72.2643 102.522 83.0893 94.9301 86.8851 88.0415C90.6809 81.1528 92.9302 72.0148 91.3838 70.4684C89.8374 68.922 91.2432 87.7603 91.2432 87.7603L78.0283 99.5694L60.4552 95.0707L65.3757 65.6885C65.3757 65.6885 70.0149 60.6275 74.5136 61.471C78.8718 62.3145 81.2617 62.8768 81.2617 62.8768L82.9487 61.8928Z" fill="#28BEC3"/>
<path d="M135.387 106.036L141.713 113.347L196.4 108.145V105.755L135.387 104.49V106.036Z" fill="#19403E"/>
<path d="M135.387 104.49L141.713 111.097L196.4 105.755L184.17 98.4446L135.387 104.49Z" fill="#1C5C57"/>
<path d="M88.5718 106.036L82.2455 113.347L27.5581 108.145V105.755L88.5718 104.49V106.036Z" fill="#19403E"/>
<path d="M88.5718 104.49L82.2455 111.097L27.5581 105.755L39.7889 98.4446L88.5718 104.49Z" fill="#1C5C57"/>
<path d="M138.058 63.5796C138.058 63.5796 119.219 68.9218 119.079 84.105C118.938 99.2881 116.83 106.739 127.936 106.458C138.901 106.458 141.854 103.506 141.854 103.506L143.962 95.4923C143.962 95.4923 133.84 100.553 128.779 92.2589C123.718 83.9644 130.045 76.7946 130.045 76.7946V97.8822L167.44 96.617L162.238 69.203C162.238 69.203 154.647 60.065 146.352 61.752C138.058 63.5796 138.058 63.5796 138.058 63.5796Z" fill="#218D8F"/>
<path d="M112.893 30.4019C112.893 30.4019 106.145 36.3064 110.222 42.6327C114.44 48.959 116.267 44.0385 116.267 44.0385L112.893 30.4019Z" fill="#1B4F4C"/>
<path d="M201.039 49.3806C198.368 85.792 174.609 96.1952 162.238 99.1475C170.673 99.5693 192.745 100.975 196.962 96.4764C201.602 91.4154 203.991 54.0199 203.991 54.0199C203.991 54.0199 203.992 50.0835 201.039 49.3806Z" fill="#1B4F4C"/>
<path d="M201.04 49.3805C200.618 49.2399 200.618 48.9587 200.055 48.9587C195.838 48.9587 156.474 48.9587 156.474 48.9587C156.474 48.9587 153.944 50.7863 154.647 58.2373C155.35 65.8289 154.506 96.0545 154.506 96.0545C154.506 96.0545 154.084 99.1474 159.989 99.1474C160.411 99.1474 161.395 99.1474 162.098 99.1474C174.75 96.3357 199.634 86.3542 201.04 49.3805Z" fill="#1C5C57"/>
<path d="M182.763 78.2002C182.763 78.2002 178.265 79.1843 180.233 83.4018C182.201 87.6193 182.763 98.8661 181.217 103.505C179.671 108.426 178.405 111.94 178.405 111.94C178.405 111.94 180.514 115.455 184.169 111.94C187.824 108.426 190.074 101.959 190.074 92.821C189.933 83.9641 186.84 80.4495 182.763 78.2002Z" fill="#19403E"/>
<path d="M196.4 110.675C196.4 110.675 194.291 115.315 187.543 115.877C180.795 116.299 169.267 115.877 169.267 115.877C169.267 115.877 163.363 115.455 164.628 113.487C165.893 111.519 171.798 111.66 178.827 110.816C185.575 109.973 196.4 110.675 196.4 110.675Z" fill="#19403E"/>
<path d="M162.098 12.6882C162.098 12.6882 162.52 7.4866 168.424 11.0012C174.329 14.6564 175.172 17.6087 174.61 20.9827C174.047 24.3567 170.814 23.7944 174.75 28.5743C178.687 33.4947 177.281 33.073 177.281 33.073C177.281 33.073 171.236 33.7759 169.689 28.8554C168.283 23.935 164.347 25.0597 164.347 19.1551" fill="#19403E"/>
<path d="M145.509 57.9563C145.509 61.4709 147.617 64.7044 147.617 64.7044C147.617 64.7044 142.275 65.5479 140.026 65.9696C137.777 66.3914 136.23 58.0969 136.23 58.0969H145.509V57.9563Z" fill="#66C8CB"/>
<path d="M137.355 102.803C137.355 102.803 139.042 107.442 143.541 106.599C148.039 105.755 145.368 102.803 145.368 102.803C145.368 102.803 147.477 105.896 151.273 104.771C155.068 103.506 159.145 98.0231 151.273 96.7578C143.4 95.4925 144.243 94.7896 141.572 96.336C139.323 97.3201 137.355 102.803 137.355 102.803Z" fill="#94D3D2"/>
<path d="M77.0443 57.9564C77.0443 57.9564 77.4661 66.2509 81.4024 65.8292C85.3388 65.4074 81.4024 55.8477 81.4024 55.8477" fill="#C7E7E0"/>
<path d="M74.9355 99.7097C69.7338 99.7097 67.7656 104.771 67.7656 104.771C67.7656 104.771 66.9221 109.832 69.3121 106.598C71.702 103.646 73.2484 104.771 73.2484 104.771C73.2484 104.771 69.0309 106.88 72.4049 107.582C75.6384 108.285 77.0442 106.177 76.9036 104.771C76.763 103.365 76.4819 108.426 78.8718 107.723C81.1212 107.02 82.8082 103.506 81.2618 102.381C79.9965 101.116 81.6835 99.7097 74.9355 99.7097Z" fill="#C7E7E0"/>
<path d="M44.7095 97.1792C39.5079 97.1792 37.5397 102.24 37.5397 102.24C37.5397 102.24 36.6962 107.301 39.0861 104.068C41.4761 101.116 43.0225 102.24 43.0225 102.24C43.0225 102.24 38.805 104.349 42.179 105.052C45.4124 105.755 46.8183 103.646 46.6777 102.24C46.5371 100.834 46.2559 105.895 48.6459 105.193C50.8952 104.49 52.5822 100.975 51.0358 99.8503C49.4894 98.585 51.317 97.1792 44.7095 97.1792Z" fill="#C7E7E0"/>
<path d="M11.1097 109.973C11.1097 109.973 13.2185 114.612 19.9666 115.174C26.7146 115.596 38.2425 115.174 38.2425 115.174C38.2425 115.174 44.1471 114.753 42.8818 112.784C41.6166 110.816 35.712 110.957 28.6828 110.113C21.7942 109.129 11.1097 109.973 11.1097 109.973Z" fill="#19403E"/>
<path d="M118.657 126.843C128.984 126.843 137.355 123.318 137.355 118.97C137.355 114.622 128.984 111.097 118.657 111.097C108.331 111.097 99.9594 114.622 99.9594 118.97C99.9594 123.318 108.331 126.843 118.657 126.843Z" fill="white"/>
<path d="M91.3836 70.187C91.3836 70.187 85.6197 72.2958 86.7443 79.325C87.7284 86.0731 83.2297 92.9617 81.6833 94.227C80.2774 95.4922 81.6833 94.227 81.6833 94.227L90.8213 84.1049L91.3836 70.187Z" fill="#218D8F"/>
<path d="M89.6969 25.0596C89.6969 25.0596 92.368 28.0118 91.5245 30.4018C90.5404 32.7917 86.8853 37.9933 86.8853 37.9933C86.8853 37.9933 90.8216 35.6034 91.8057 32.7917C92.6492 30.1206 93.2115 28.1524 92.6492 26.8872C91.9463 26.0437 89.6969 25.0596 89.6969 25.0596Z" fill="#218D8F"/>
<path d="M118.657 17.6084L113.455 22.2477C113.455 22.2477 117.673 26.7464 115.142 28.574C112.753 30.4016 111.347 31.1045 111.347 35.1815C111.347 39.2584 114.861 45.8659 114.861 45.8659C114.861 45.8659 120.063 52.4733 123.156 44.0383C126.389 35.7438 118.657 17.6084 118.657 17.6084Z" fill="#19403E"/>
<path d="M157.739 9.03283C153.1 5.65881 147.336 3.55005 141.15 3.55005C134.121 3.55005 127.795 6.08057 122.874 10.2981C119.641 14.7968 116.126 20.9825 117.532 26.0436C119.641 35.6033 115.564 37.4309 119.219 44.8819C120.484 47.4124 121.187 49.5212 121.89 51.4894C126.951 56.4098 133.559 59.3621 141.15 59.3621C142.837 59.3621 144.384 59.2215 146.211 58.9403C163.925 51.6299 160.41 21.826 157.739 9.03283Z" fill="#94D3D2"/>
<path d="M113.455 22.2478C124.14 17.3273 129.06 14.375 130.607 12.5474C132.294 10.8604 128.638 15.6403 128.638 15.6403C128.638 15.6403 137.355 15.6403 143.54 12.2663C149.726 8.89225 155.209 9.87634 154.365 15.078C153.381 20.2796 157.739 20.2796 160.551 19.2955C163.222 18.3114 164.769 32.3699 162.66 35.041C160.692 37.7121 158.864 41.2267 161.957 42.6325C165.19 43.8978 170.814 37.9932 168.705 26.6059C166.596 15.2185 159.848 1.86304 145.649 1.86304C131.45 1.86304 124.562 5.65882 118.516 10.7199C112.331 15.7809 113.455 22.2478 113.455 22.2478Z" fill="#19403E"/>
<path d="M129.763 4.81543C129.763 4.81543 121.469 8.61121 117.532 13.6723C113.596 18.8739 125.405 9.87648 125.405 9.87648L129.763 4.81543Z" fill="#1E6969"/>
<path d="M139.323 5.79956C139.323 5.79956 137.495 13.3911 132.575 14.094C127.654 14.797 133.84 15.7811 137.776 11.7041C141.853 7.48657 139.323 5.79956 139.323 5.79956Z" fill="#1E6969"/>
<path d="M125.967 117.283C125.967 117.283 124.843 114.893 123.437 113.487C123.015 113.065 123.015 112.784 122.734 112.503C121.609 112.925 120.906 113.487 120.906 113.487L104.036 118.97L125.405 121.922C125.405 121.922 125.827 122.344 126.389 122.344C125.124 120.094 125.967 117.283 125.967 117.283Z" fill="#28BEC3"/>
<path d="M130.185 121.922C129.763 118.126 128.639 112.784 125.967 112.222C124.702 111.8 123.577 112.222 122.593 112.644C122.593 113.065 123.015 113.065 123.296 113.628C124.843 114.893 125.827 117.423 125.827 117.423C125.827 117.423 125.124 120.235 126.249 122.625C127.795 123.469 130.607 124.593 130.185 121.922Z" fill="#94D3D2"/>
<path d="M120.344 116.299C121.509 116.299 122.453 115.921 122.453 115.455C122.453 114.989 121.509 114.612 120.344 114.612C119.179 114.612 118.235 114.989 118.235 115.455C118.235 115.921 119.179 116.299 120.344 116.299Z" fill="#218D8F"/>
<path d="M116.408 119.813C117.572 119.813 118.516 119.436 118.516 118.97C118.516 118.504 117.572 118.126 116.408 118.126C115.243 118.126 114.299 118.504 114.299 118.97C114.299 119.436 115.243 119.813 116.408 119.813Z" fill="#218D8F"/>
<path d="M83.0893 30.4019L76.06 23.6538L61.5798 16.9058C59.0493 20.8421 51.1766 31.386 56.3782 37.9934C59.7522 42.211 56.8 51.2084 57.3623 54.5824C61.5798 57.2535 68.7497 58.2376 74.2325 58.2376C80.9805 58.2376 86.885 55.8476 91.6649 51.9113C91.8055 43.195 83.0893 30.4019 83.0893 30.4019Z" fill="#C7E7E0"/>
<path d="M49.4895 37.0091C56.2376 35.7439 55.5346 38.5556 60.1739 37.9932C77.3252 36.1656 70.5772 28.8552 69.8742 28.8552L49.4895 37.0091Z" fill="#94D3D2"/>
<path d="M68.6094 39.5397C75.3574 38.2744 71.421 39.6803 76.0603 38.2744C81.8243 36.4468 82.1055 28.9958 81.262 28.9958L68.6094 39.5397Z" fill="#94D3D2"/>
<path d="M98.9752 41.2267C100.522 37.9933 98.5534 33.7758 96.5852 29.6988C94.6171 25.4813 97.007 23.0914 98.9752 17.0462C100.381 12.5475 96.1635 6.92414 93.4924 3.97186C92.6489 3.83128 91.8054 3.5501 90.8213 3.83127C79.1528 4.25302 86.8849 -1.37035 72.2641 0.31666C57.6433 2.00367 53.5664 8.61114 48.7865 15.078C43.8661 21.6855 48.0836 25.7624 44.8502 27.7306C41.6167 29.98 46.5372 37.5715 42.3196 38.2745C38.1021 38.9774 43.0226 41.3673 46.9589 38.2745C46.9589 38.2745 57.081 39.6803 62.9856 33.354C68.8901 27.1683 69.1713 38.2745 67.3437 39.9615C65.6567 41.6485 74.3729 39.2586 77.7469 33.7758C81.121 28.293 86.6037 36.8686 85.3385 40.5238C83.9326 44.179 94.1953 35.4628 93.633 31.667C93.2112 27.7306 94.6171 30.5423 93.633 41.5079C93.2112 48.256 94.0547 53.317 96.1635 55.1446C94.6171 52.0517 97.5693 44.179 98.9752 41.2267Z" fill="#1E6969"/>
<path d="M102.209 27.8711C104.458 21.9666 108.394 21.2637 104.739 17.1867C101.365 13.3909 101.506 4.67468 92.6488 3.40942C95.1793 6.3617 99.3969 12.1257 98.1316 16.4838C96.1634 22.8101 93.7735 25.2 95.7417 29.1364C97.7098 33.3539 99.5375 37.4309 98.1316 40.6643C96.5852 43.8977 93.7735 51.6299 95.6011 54.301C96.8663 55.4257 98.4128 55.1445 100.1 53.0357C104.458 47.8341 100.24 37.1497 105.442 37.4309C110.644 38.2744 99.8186 33.7757 102.209 27.8711Z" fill="#1B4F4C"/>
<path d="M71.2801 1.72266C71.2801 1.72266 56.9404 4.11259 52.8635 14.6564C48.7865 25.2003 52.1606 12.2665 59.8927 8.75188C67.3437 4.81551 71.2801 1.72266 71.2801 1.72266Z" fill="#218D8F"/>
<path d="M64.1102 22.2478C64.1102 22.2478 62.142 30.964 54.4098 33.0728C46.5371 35.1816 46.5371 35.1816 46.5371 35.1816C46.5371 35.1816 57.2215 35.3222 60.455 31.8075C63.829 28.2929 64.1102 22.2478 64.1102 22.2478Z" fill="#218D8F"/>
<path d="M50.3329 31.2454C50.3329 31.2454 54.1287 31.2454 56.6592 28.8555C59.1897 26.6061 60.5956 23.6538 60.5956 22.1074C60.5956 20.561 59.752 24.2162 57.5027 27.1685C54.9722 30.1207 50.3329 31.2454 50.3329 31.2454Z" fill="#218D8F"/>
<path d="M7.03308 97.1791C11.6724 102.24 37.6805 99.7096 44.0068 99.7096C50.3331 99.7096 49.4896 96.6168 49.4896 96.6168C49.4896 96.6168 48.6461 66.3911 49.349 58.7996C50.0519 51.208 47.5214 49.521 47.5214 49.521C41.7574 78.4814 7.03308 97.1791 7.03308 97.1791Z" fill="#1B4F4C"/>
<path d="M0.00367272 55.0037C0.00367272 55.0037 2.25302 92.3992 7.0329 97.4602C7.0329 97.4602 42.0384 79.4654 47.6618 50.0833C47.6618 50.0833 8.15756 50.0833 4.08061 50.0833C-0.277505 49.6615 0.00367272 55.0037 0.00367272 55.0037Z" fill="#1C5C57"/>
<path d="M24.7466 77.6379C24.7466 77.6379 29.2453 78.622 27.2771 82.8396C25.3089 87.0571 24.7466 98.3039 26.293 102.943C27.8394 107.864 29.1047 111.378 29.1047 111.378C29.1047 111.378 26.9959 114.893 23.3407 111.378C19.6855 107.864 17.4362 101.397 17.4362 92.2587C17.5767 83.1207 20.529 79.6061 24.7466 77.6379Z" fill="#19403E"/>
</svg>
