<svg width="230" height="178" viewBox="0 0 230 178" fill="none" xmlns="http://www.w3.org/2000/svg">
<path d="M14.351 126.895C14.351 126.895 8.95978 95.2582 10.946 88.0228C12.9323 80.6455 32.5109 57.5205 32.5109 57.5205C32.5109 57.5205 53.7921 78.943 54.3595 82.6317C54.7852 86.3204 61.737 130.868 56.7714 130.159C51.8058 129.449 37.1928 130.584 37.1928 130.584L14.351 126.895Z" fill="#67863A"/>
<path d="M156.367 92.7045C156.367 92.7045 166.724 98.6631 184.6 100.649C202.335 102.635 215.103 102.21 215.103 102.21C215.103 102.21 219.359 102.21 215.103 93.9814C210.847 85.7528 171.406 76.6731 166.015 79.9361C160.907 83.341 156.367 92.7045 156.367 92.7045Z" fill="#4D5E2B"/>
<path d="M6.54802 96.3931L31.376 59.2229L59.8928 89.4414L61.1696 86.0365L31.376 51.2781L5.69678 92.4207L6.54802 96.3931Z" fill="#4D5E2B"/>
<path d="M24.8497 125.335C24.8497 125.335 18.6072 91.144 35.3484 88.1647C51.9477 85.1854 49.3939 125.619 49.3939 125.619L24.8497 125.335Z" fill="#4D5E2B"/>
<path d="M156.367 129.875L162.184 87.3135C162.184 87.3135 171.406 80.7874 189.14 82.7736C206.874 84.618 212.691 95.9676 212.691 95.9676L206.165 132.57H168.994L156.367 129.875Z" fill="#77A340"/>
<path d="M169.136 132.712C169.136 132.712 166.582 88.732 184.458 94.6906C202.193 100.649 188.573 134.273 188.573 134.273L169.136 132.712Z" fill="#67863A"/>
<path d="M129.411 134.415L109.832 138.103L64.8583 126.896L54.7852 125.051C50.2453 126.328 45.5634 127.889 41.3072 130.442C31.376 136.259 22.7216 143.636 15.9117 150.588C30.241 164.633 57.339 177.402 108.697 177.402C117.21 177.402 125.155 176.976 132.39 176.409C122.176 164.208 113.947 147.609 129.411 134.415Z" fill="#D1E49E"/>
<path d="M41.3071 130.442C45.5634 127.889 50.2452 126.186 54.7852 125.051L0.0217238 115.12C0.0217238 115.12 -1.25515 133.705 15.7698 150.446C22.7216 143.494 31.3759 135.975 41.3071 130.442Z" fill="#B3D56E"/>
<path d="M230 115.12L129.269 134.415C113.663 147.75 122.176 164.208 132.249 176.408C223.19 168.18 230 115.12 230 115.12Z" fill="#B3D56E"/>
<path d="M75.9245 124.767C75.9245 124.767 71.1008 114.127 63.4396 119.802C55.6365 125.619 62.7302 130.868 67.1283 132.712C71.5264 134.698 83.5858 133.563 83.5858 133.563L82.7345 127.747L75.9245 124.767Z" fill="#4D5E2B"/>
<path d="M99.1918 91.0023L75.3569 123.491C75.3569 123.491 81.8831 131.01 84.1531 128.74C86.2812 126.612 103.448 94.8329 103.448 94.8329H110.4C110.4 94.8329 109.974 115.12 119.338 117.674C128.56 120.228 141.896 108.311 141.896 108.311L138.349 100.933C138.349 100.933 128.985 110.013 123.452 109.871C118.203 109.729 117.635 95.9678 120.757 89.7255C124.02 83.7669 99.1918 91.0023 99.1918 91.0023Z" fill="#8EC547"/>
<path d="M97.773 53.5481C97.773 53.5481 94.9355 79.0849 89.4024 81.0711C86.565 82.0642 84.295 81.0711 84.295 81.0711L86.9906 87.3134C86.9906 87.3134 103.448 89.1577 105.15 72.5588C106.853 56.1018 102.171 53.69 102.171 53.69L97.773 53.5481Z" fill="#77A340"/>
<path d="M101.887 45.0359C101.887 45.0359 101.462 51.2782 103.732 51.2782C105.86 51.2782 109.123 51.4201 107.846 48.4408C106.569 45.6034 103.732 43.6172 103.732 43.6172L101.887 45.0359Z" fill="#77A340"/>
<path d="M86.8488 3.75146C86.8488 3.75146 85.5719 5.87953 84.0113 9.00069C84.7207 8.57508 85.5719 8.14947 86.4232 7.86573L86.8488 3.75146Z" fill="#4D5E2B"/>
<path d="M85.0043 13.5404C79.8968 17.7966 80.1806 24.6064 80.1806 25.1739C80.1806 25.7413 89.828 21.4852 90.6793 18.5059C91.5305 15.6685 93.3749 13.966 98.4824 13.3985C103.732 12.9729 97.2055 15.3848 97.6311 18.5059C98.0567 21.3433 100.469 22.6202 100.469 22.6202C100.469 22.6202 100.043 16.8035 102.88 16.8035C105.576 16.8035 106.569 26.0251 104.157 27.1601C101.745 28.295 111.109 24.6064 111.109 20.3502C111.109 15.9522 111.535 11.6961 109.265 11.6961C106.995 11.6961 97.6311 7.58183 93.233 8.00745C88.8349 8.14932 85.0043 13.5404 85.0043 13.5404Z" fill="#4D5E2B"/>
<path d="M97.7731 53.5482C97.7731 53.5482 104.725 47.4478 113.521 47.4478C122.175 47.4478 126.006 61.7767 126.006 70.0053C126.006 78.2338 119.48 94.4071 119.48 94.4071C119.48 94.4071 108.697 90.151 99.3337 91.1441C90.1119 92.279 99.3337 68.1609 99.3337 68.1609C99.3337 68.1609 103.874 53.9738 97.7731 53.5482Z" fill="#67863A"/>
<path d="M113.237 47.4476C113.237 47.4476 120.899 57.0948 120.757 65.6071C120.615 74.1194 104.583 80.5036 100.043 80.9292C95.5032 81.3548 92.6657 79.9361 92.6657 79.9361V72.4169C92.6657 72.4169 110.826 75.2543 113.096 67.3095C115.507 59.5066 108.981 51.1362 108.981 51.1362C108.981 51.1362 107.704 49.15 109.832 47.5894C112.102 46.4545 113.237 47.4476 113.237 47.4476Z" fill="#77A340"/>
<path d="M89.2607 79.0848C92.4733 79.0848 95.0775 76.4806 95.0775 73.2681C95.0775 70.0556 92.4733 67.4514 89.2607 67.4514C86.0481 67.4514 83.4438 70.0556 83.4438 73.2681C83.4438 76.4806 86.0481 79.0848 89.2607 79.0848Z" fill="#B3D56E"/>
<path d="M141.754 108.452C141.754 108.452 148.28 116.823 151.969 114.978C158.779 111.999 151.969 106.04 151.969 106.04L144.166 96.3931L138.349 100.933L141.754 108.452Z" fill="#4D5E2B"/>
<path d="M108.13 33.8281C107.704 23.8971 101.888 12.5474 101.888 12.5474L99.4757 6.02132C98.1988 5.59571 96.6382 5.5957 95.2194 5.5957C91.9563 5.5957 88.6932 6.30506 85.9976 7.5819C85.1464 8.00752 84.437 8.43313 83.5857 8.71688C80.7483 14.3917 76.7758 22.7621 77.627 26.8764C78.9039 32.1256 81.032 35.3887 80.4645 42.4822C84.1532 46.1709 89.4026 48.299 95.2194 48.299C97.3475 48.299 99.4756 47.8733 101.462 47.3059C104.441 45.0359 108.556 40.3542 108.13 33.8281Z" fill="#B3D56E"/>
<path d="M116.642 27.16C116.642 16.8034 109.265 8.29115 99.3338 6.16309L101.746 12.6892C101.746 12.6892 107.563 23.897 107.988 33.9698C108.414 40.4959 104.441 45.0358 101.462 47.5895C110.116 44.8939 116.642 36.6654 116.642 27.16Z" fill="#8EC547"/>
<path d="M86.707 6.44693C86.707 6.44693 81.3158 7.29815 79.3295 10.5612C77.4851 13.5405 78.9039 15.6685 74.7895 16.8035C70.5333 17.9385 80.4645 20.3503 87.5582 14.8173C94.9357 9.42622 97.9151 12.6893 99.6175 12.8311C101.462 12.973 102.455 11.9799 107.562 15.6686C112.812 19.2153 103.448 17.7966 107.988 22.1946C112.528 26.4508 109.974 29.2882 109.974 29.2882C109.974 29.2882 114.089 31.2744 111.251 34.6793C108.556 38.0842 112.528 37.6586 112.528 37.6586C112.528 37.6586 118.771 36.3817 118.771 28.2951C118.771 20.2084 112.954 14.6755 112.954 14.6755C112.954 14.6755 115.507 8.85874 108.839 6.44693C102.313 3.89325 100.894 4.46073 98.4825 1.05582C95.9288 -2.49096 98.0569 4.03511 98.0569 4.03511C98.0569 4.03511 95.2194 3.32576 92.3819 1.62331C89.6863 -0.0791466 92.8076 4.31886 92.8076 4.31886C92.8076 4.31886 89.4026 3.32576 86.707 6.44693Z" fill="#4D5E2B"/>
<path d="M84.5788 78.6593L77.2014 59.0811C76.7757 58.2299 75.9245 57.5205 75.2151 57.5205L68.1214 81.213C68.547 81.6386 69.3983 82.2061 70.2495 82.0642L83.5857 80.3618C84.0113 80.3618 84.2951 80.2199 84.5788 79.9362C84.8626 79.6524 84.8626 78.9431 84.5788 78.6593Z" fill="#67863A"/>
<path d="M74.6475 57.5205L62.5882 59.3648C62.1626 59.3648 61.8789 59.5067 61.5951 59.7904C61.4532 60.216 61.4532 60.6417 61.5951 61.0673L67.6957 80.5036C67.8376 80.9293 68.1213 80.9293 68.1213 81.3549L75.215 57.6624C75.0732 57.5205 74.7894 57.5205 74.6475 57.5205Z" fill="#77A340"/>
<path d="M70.5333 83.1991C70.5333 83.1991 72.3776 87.4552 76.6339 87.4552C80.8901 87.5971 86.7069 87.4552 86.7069 87.4552L84.0113 81.2129C84.0113 81.2129 77.4851 83.9084 78.3364 81.2129C79.1876 78.5173 79.6132 78.2336 77.9107 78.2336C76.2083 78.2336 76.2083 80.2198 76.2083 80.2198C76.2083 80.2198 76.6339 78.2336 75.4989 78.2336C74.222 78.0917 73.6545 80.0779 73.6545 80.0779C73.6545 80.0779 74.9314 78.0917 73.2289 77.6661C71.3845 77.2405 71.2427 79.6523 71.2427 79.6523C71.2427 79.6523 70.2495 78.3754 70.5333 83.1991Z" fill="#B3D56E"/>
<path d="M75.7826 55.9612L63.7233 57.8055C62.7302 57.9474 61.8789 58.7986 61.7371 59.6499C62.1627 59.508 62.1627 59.2242 62.7302 59.2242L74.7895 57.3799C75.2151 57.3799 75.2151 57.3799 75.4989 57.3799L75.7826 55.9612Z" fill="#8EC547"/>
<path d="M85.7138 77.0987L78.3364 57.5205C77.9107 56.2437 77.0595 55.818 75.7826 55.9599L75.357 57.5205C76.2082 57.6624 77.0595 58.2298 77.3432 59.0811L84.7207 78.6593C84.8626 79.0849 84.8626 79.6524 84.8626 79.9361C85.7138 79.5105 86.1394 78.2337 85.7138 77.0987Z" fill="#77A340"/>
<path d="M156.367 92.7047C156.367 92.7047 173.676 81.4969 186.161 84.0506C198.788 86.6042 204.888 87.8811 208.719 92.7047C212.407 97.5283 214.961 102.21 214.961 102.21C214.961 102.21 216.947 103.487 219.501 100.224C222.055 96.9608 219.076 79.7944 210.563 71.2822C202.051 62.628 179.209 57.8044 166.582 70.1472C153.955 82.49 150.55 90.2929 151.26 91.4278C151.827 92.4209 156.367 92.7047 156.367 92.7047Z" fill="#67863A"/>
</svg>
