<svg width="298" height="171" viewBox="0 0 298 171" fill="none" xmlns="http://www.w3.org/2000/svg">
<path d="M58.5619 89.7833C57.707 90.6959 56.2414 91.1826 53.1881 91.4867C50.1348 91.7301 50.8676 90.5134 48.3639 91.1826C48.1807 91.2434 47.9975 91.2434 47.8143 91.3042C48.0586 92.0951 48.6082 93.8594 49.402 95.1369C54.3484 94.9544 60.1496 94.5894 61.0045 93.5552C62.6533 91.6693 59.4168 88.8099 58.5619 89.7833Z" fill="#076B69"/>
<path d="M118.895 148.369C117.185 149.16 110.223 152.262 103.506 152.931C96.3615 153.601 92.3922 155.365 91.8426 155.608V159.806L119.383 152.627L119.261 148.369C119.078 148.369 118.956 148.369 118.895 148.369Z" fill="#E1BF6F"/>
<path d="M118.345 138.026C118.345 138.026 118.589 138.026 119.017 138.087L118.773 128.719C117.307 129.023 114.742 129.449 110.284 129.692C102.773 130.118 93.7357 133.038 91.8426 133.646V145.631C91.8426 145.631 101.796 144.049 108.391 141.129C114.986 138.209 118.345 138.026 118.345 138.026Z" fill="#E1BF6F"/>
<path d="M118.589 123.243L97.2164 127.076C101.247 126.407 108.88 125.312 118.65 124.703L118.589 123.243Z" fill="#E1BF6F"/>
<path d="M94.1631 127.563L91.7816 127.989V128.171C92.7586 127.928 93.4914 127.745 94.1631 127.563Z" fill="#E1BF6F"/>
<path d="M152.847 127.928L150.343 128.049L134.65 125.433C144.909 127.867 152.359 133.281 152.359 133.281L152.847 127.928Z" fill="#E1BF6F"/>
<path d="M123.963 124.399C125.673 124.338 127.383 124.399 129.032 124.521L119.811 123L118.65 123.183L118.711 124.643C120.36 124.521 122.131 124.46 123.963 124.399Z" fill="#E1BF6F"/>
<path d="M151.321 139.973C151.321 139.973 149.977 139.486 144.298 134.863C138.619 130.3 120.421 128.171 120.421 128.171C120.421 128.171 120.055 128.414 118.711 128.718L118.956 138.087C121.887 138.391 133.856 139.608 139.352 141.494C145.641 143.684 150.954 145.692 150.954 145.692C150.954 145.692 151.076 145.753 151.321 145.813L151.809 139.669C151.504 139.852 151.321 139.973 151.321 139.973Z" fill="#E1BF6F"/>
<path d="M128.238 148.673C122.925 148.551 120.36 148.49 119.2 148.429L119.322 152.688L119.75 152.566L150.16 159.38L150.343 157.372C139.107 152.384 142.039 148.916 128.238 148.673Z" fill="#E1BF6F"/>
<path d="M61.432 145.327C64.7906 140.217 75.0496 140.886 82.2553 142.772C89.4611 144.658 91.8426 145.631 91.8426 145.631V133.646C91.5984 133.707 91.4762 133.768 91.4762 133.768C91.4762 133.768 77.248 135.35 68.3934 134.376C59.5389 133.403 51.7836 128.779 51.7836 128.779C51.7836 128.779 51.7836 128.779 51.7226 128.84L46.8373 147.395L46.9594 147.334L61.493 151.35C60.516 149.099 60.3328 147.03 61.432 145.327Z" fill="#CCAE73"/>
<path d="M73.6451 128.171C83.3545 129.753 88.6061 128.901 91.7815 128.171V127.988L91.5984 128.049L55.5697 119.532L53.982 120.141L53.1881 123.182C53.2492 123.243 60.4549 125.981 73.6451 128.171Z" fill="#CCAE73"/>
<path d="M91.7205 155.669C91.7205 155.669 74.0725 148.673 78.4082 156.095L91.7815 159.806H91.8426V155.608C91.7815 155.608 91.7205 155.669 91.7205 155.669Z" fill="#CCAE73"/>
<path d="M32.0594 134.376C27.4184 134.376 25.8918 133.099 26.1971 131.274L13.007 136.567L0 165.403L46.8984 147.456L51.7836 128.901C51.1119 129.449 45.0664 134.437 32.0594 134.376Z" fill="#E1BF6F"/>
<path d="M53.2492 123.243L54.043 120.201L37.1279 126.954C37.5553 127.38 39.2041 127.319 41.5246 128.232C46.7152 130.118 53.2492 123.243 53.2492 123.243Z" fill="#E1BF6F"/>
<path d="M245.728 119.532L229.607 128.171C230.278 128.354 231.133 128.536 232.416 128.84C238.644 130.239 244.934 133.099 235.591 136.384C226.248 139.669 221.18 142.772 221.18 142.772L224.782 165.281L225.088 165.403L250.674 147.821L251.529 148.247L245.85 119.654L245.728 119.532Z" fill="#CCAE73"/>
<path d="M281.695 140.642C278.154 140.703 274.307 140.703 271.986 139.243C269.116 137.418 268.872 134.194 269.299 131.639L245.911 119.654L251.59 148.247L270.948 157.737C276.505 156.521 282.673 154.817 287.985 152.384L281.695 140.642Z" fill="#E1BF6F"/>
<path d="M271.986 139.243C274.307 140.703 278.154 140.703 281.695 140.643L279.68 136.932L269.238 131.578C268.872 134.133 269.055 137.418 271.986 139.243Z" fill="#9BA95F"/>
<path d="M287.985 152.384C282.673 154.817 276.505 156.582 270.948 157.738L298 171L287.985 152.384Z" fill="#9BA95F"/>
<path d="M178.373 155.122C176.296 155.122 172.754 156.582 168.419 157.738L180.998 156.643C180.143 156.095 179.411 155.547 178.8 155.122C178.739 155.122 178.556 155.122 178.373 155.122Z" fill="#CCAE73"/>
<path d="M193.639 151.411V149.16C193.639 149.16 192.54 149.768 190.891 150.62C191.807 150.863 192.723 151.106 193.639 151.411Z" fill="#CCAE73"/>
<path d="M168.297 142.772C160.053 135.715 153.641 138.513 151.87 139.608L151.382 145.753C153.03 146.179 160.236 147.517 169.335 143.684C168.968 143.38 168.663 143.076 168.297 142.772Z" fill="#CCAE73"/>
<path d="M160.725 131.699C166.709 131.639 166.465 132.004 171.839 135.289C174.281 136.749 176.235 137.905 177.701 139.243C182.647 136.141 183.991 134.863 193.639 135.471V126.102L192.723 125.859L152.786 127.988L152.359 133.403C152.359 133.342 154.74 131.76 160.725 131.699Z" fill="#CCAE73"/>
<path d="M150.343 157.312L150.16 159.319L150.282 159.38L155.717 158.894C154.007 158.65 152.236 158.163 150.466 157.373C150.466 157.373 150.405 157.312 150.343 157.312Z" fill="#CCAE73"/>
<path d="M211.775 130.787L193.7 126.042V135.411C201.883 135.958 211.653 133.95 211.775 130.787Z" fill="#E1BF6F"/>
<path d="M207.928 147.395C196.753 146.665 193.639 149.16 193.639 149.16V151.41C199.44 153.418 197.303 151.654 199.562 153.479C200.295 154.087 201.394 155.912 202.493 158.224L224.782 165.342L221.18 142.833C221.241 142.772 219.103 148.186 207.928 147.395Z" fill="#E1BF6F"/>
<path d="M119.261 148.186L119.017 138.087C118.589 138.027 118.345 138.027 118.345 138.027C118.345 138.027 114.986 138.209 108.391 141.19C101.796 144.171 91.8426 145.692 91.8426 145.692V155.608C92.3922 155.365 96.3615 153.601 103.506 152.932C110.223 152.262 117.185 149.221 118.895 148.369C117.857 148.247 119.017 148.186 119.261 148.186Z" fill="#9BA95F"/>
<path d="M119.261 148.186C119.017 148.186 117.857 148.247 118.895 148.369C119.078 148.308 119.2 148.247 119.261 148.186Z" fill="#566B30"/>
<path d="M118.895 148.369C119.017 148.369 119.139 148.369 119.261 148.369V148.186C119.2 148.247 119.078 148.308 118.895 148.369Z" fill="#566B30"/>
<path d="M139.352 141.494C133.856 139.608 121.887 138.331 118.956 138.087L119.2 148.186H119.261C119.261 148.186 119.261 148.186 119.2 148.186V148.369C120.299 148.43 122.864 148.551 128.238 148.612C142.039 148.855 139.107 152.323 150.343 157.251L151.32 145.692C151.076 145.631 150.954 145.57 150.954 145.57C150.954 145.57 145.702 143.684 139.352 141.494Z" fill="#9BA95F"/>
<path d="M91.7205 155.669C91.7205 155.669 91.7816 155.669 91.7816 155.608V145.692C91.7816 145.692 89.4 144.719 82.1943 142.833C74.9885 140.947 64.7295 140.217 61.3709 145.388C60.2717 147.091 60.3939 149.16 61.493 151.471L78.3471 156.156C74.0725 148.673 91.7205 155.669 91.7205 155.669Z" fill="#6F8E3F"/>
<path d="M235.591 136.384C244.934 133.099 238.583 130.239 232.416 128.84C231.194 128.536 230.278 128.353 229.607 128.171L220.508 133.038L219.592 132.794L221.18 142.772C221.241 142.772 226.309 139.73 235.591 136.384Z" fill="#6F8E3F"/>
<path d="M177.701 139.243C179.533 140.886 180.693 142.65 181.059 145.327C181.609 149.403 186.067 149.525 190.891 150.62C192.54 149.768 193.639 149.16 193.639 149.16V135.411C183.991 134.802 182.647 136.141 177.701 139.243Z" fill="#6F8E3F"/>
<path d="M178.861 155.122C174.709 151.776 176.724 150.316 169.274 143.684C160.175 147.517 152.969 146.179 151.32 145.753L150.343 157.312C150.405 157.312 150.466 157.373 150.466 157.373C152.236 158.163 153.946 158.589 155.717 158.893L168.419 157.798C172.754 156.643 176.296 155.182 178.373 155.182C178.556 155.122 178.739 155.122 178.861 155.122Z" fill="#6F8E3F"/>
<path d="M193.639 135.41V149.16C193.639 149.16 196.692 146.665 207.928 147.395C219.164 148.125 221.241 142.772 221.241 142.772L219.653 132.795L211.775 130.726C211.653 133.95 201.883 135.958 193.639 135.41Z" fill="#9BA95F"/>
<path d="M94.5906 127.502C94.4684 127.502 94.2852 127.563 94.1631 127.623L97.2164 127.076C96.0562 127.258 95.1402 127.38 94.5906 127.502Z" fill="#6F8E3F"/>
<path d="M128.97 124.521L134.65 125.433C132.818 125.007 130.925 124.703 128.97 124.521Z" fill="#6F8E3F"/>
<path d="M91.8426 133.707C93.7967 133.038 102.834 130.118 110.284 129.753C114.742 129.509 117.307 129.084 118.773 128.779L118.65 124.703C108.88 125.312 101.308 126.407 97.2164 127.076L94.1631 127.624C93.4914 127.745 92.7586 127.989 91.7816 128.232V133.707H91.8426Z" fill="#6EA1A0"/>
<path d="M123.963 124.399C122.131 124.46 120.36 124.582 118.65 124.703L118.773 128.779C120.055 128.475 120.482 128.232 120.482 128.232C120.482 128.232 138.619 130.361 144.359 134.924C150.038 139.487 151.382 140.034 151.382 140.034C151.382 140.034 151.565 139.912 151.87 139.669L152.42 133.403C152.42 133.403 144.97 127.928 134.711 125.555L129.032 124.642C127.322 124.338 125.673 124.277 123.963 124.399Z" fill="#6EA1A0"/>
<path d="M73.6451 128.171C60.4549 125.981 53.1881 123.182 53.1881 123.182L51.7225 128.84C51.7836 128.779 51.7836 128.779 51.7836 128.779C51.7836 128.779 59.5389 133.403 68.3934 134.376C77.248 135.35 91.4762 133.768 91.4762 133.768C91.4762 133.768 91.5984 133.707 91.8426 133.646V128.171C88.6062 128.962 83.3545 129.814 73.6451 128.171Z" fill="#1F8C8F"/>
<path d="M32.0594 134.376C45.0664 134.437 51.1119 129.448 51.7225 128.901L53.1881 123.243C53.1881 123.243 46.6541 130.179 41.4635 128.232C39.143 127.38 37.4332 127.38 37.0668 126.954L26.1361 131.334C25.8918 133.099 27.4184 134.376 32.0594 134.376Z" fill="#6EA1A0"/>
<path d="M190.891 150.62C187.593 152.323 182.098 154.878 178.861 155.122C179.472 155.608 180.143 156.095 181.059 156.642L193.639 155.547V151.411C192.723 151.106 191.807 150.863 190.891 150.62Z" fill="#1F8C8F"/>
<path d="M177.701 139.243C176.235 137.966 174.22 136.749 171.839 135.289C166.404 132.065 166.648 131.639 160.725 131.7C154.74 131.76 152.42 133.342 152.42 133.342L151.87 139.608C153.641 138.513 160.053 135.715 168.297 142.772C168.663 143.076 169.029 143.38 169.335 143.684C170.007 143.441 170.678 143.137 171.289 142.772C174.098 141.433 176.113 140.217 177.701 139.243Z" fill="#1F8C8F"/>
<path d="M193.639 151.411V155.548L194.127 155.487L202.555 158.164C201.455 155.913 200.356 154.027 199.623 153.418C197.303 151.654 199.501 153.357 193.639 151.411Z" fill="#6EA1A0"/>
<path d="M181.059 145.327C180.693 142.65 179.533 140.825 177.701 139.243C176.113 140.277 174.098 141.433 171.289 142.833C170.617 143.137 169.945 143.441 169.335 143.745C176.785 150.376 174.77 151.836 178.922 155.182C182.159 154.939 187.593 152.384 190.952 150.68C186.067 149.525 181.609 149.464 181.059 145.327Z" fill="#1F8C8F"/>
<path opacity="0.26" d="M223.073 143.867C221.363 143.502 215.012 142.833 214.523 145.996C214.035 149.099 217.21 149.282 220.202 149.707C223.195 150.133 222.584 149.099 225.637 149.282C228.691 149.525 228.813 150.316 228.813 150.316C228.813 150.316 231.133 150.742 231.561 147.7C231.988 144.658 232.171 143.867 230.034 143.928C227.897 143.989 228.324 145.023 228.324 145.023C228.324 145.023 226.004 144.536 223.073 143.867Z" fill="#455526"/>
<path d="M217.516 143.928C217.516 143.928 216.355 146.544 217.149 146.726C217.943 146.909 218.615 148.125 221.424 148.004C224.233 147.882 223.317 146.665 223.317 146.665C223.317 146.665 222.706 146.483 221.363 144.901C220.019 143.319 217.516 143.928 217.516 143.928Z" fill="#566B30"/>
<path d="M225.027 143.928C225.027 143.928 224.05 146.544 224.721 146.726C225.332 146.97 225.943 148.125 228.263 148.004C230.584 147.882 229.79 146.665 229.79 146.665C229.79 146.665 229.301 146.483 228.202 144.901C227.103 143.38 225.027 143.928 225.027 143.928Z" fill="#566B30"/>
<path d="M228.63 102.62C228.63 102.62 234.614 106.331 234.797 108.643C234.98 110.954 229.362 113.996 229.729 115.031C230.034 116.065 231.377 117.038 230.339 117.464C229.24 117.89 225.271 113.084 226.859 112.11C228.446 111.137 231.561 109.981 231.255 108.643C230.95 107.304 226.492 103.897 226.492 103.897L228.63 102.62Z" fill="#6F8E3F"/>
<path d="M215.439 118.985C215.439 118.985 216.294 144.171 217.638 144.536C218.981 144.901 221.424 144.536 221.424 144.536C221.424 144.536 218.065 122.148 219.958 122.331C221.79 122.513 223.805 122.331 223.805 122.331L224.966 144.719C224.966 144.719 226.981 144.901 227.652 144.719C228.324 144.536 229.545 118.802 227.652 118.985C225.759 119.167 215.439 118.985 215.439 118.985Z" fill="#455526"/>
<path d="M220.691 97.3271C219.348 97.3271 218.126 97.9963 217.638 98.2397C217.149 98.483 216.477 97.9355 214.34 99.3956C212.264 100.856 213.241 105.053 213.241 105.053V118.742C213.241 118.742 213.546 120.628 217.21 121.297C220.508 121.905 227.164 121.297 227.408 121.297C227.897 121.297 230.217 119.167 229.668 117.099C229.118 115.091 227.652 106.331 226.859 102.62C226.126 98.9697 220.691 97.3271 220.691 97.3271Z" fill="#566B30"/>
<path d="M224.721 98.6654C224.721 98.6654 228.446 98.6046 230.095 100.977C231.744 103.35 225.454 105.905 225.454 105.905C225.454 105.905 221.424 100.308 224.721 98.6654Z" fill="#566B30"/>
<path d="M211.531 101.646C211.531 101.646 204.264 108.947 205.852 111.624C207.44 114.3 211.898 116.126 211.898 116.126C211.898 116.126 211.959 119.532 213.302 118.681C214.645 117.89 215.989 115.882 214.645 114.361C213.302 112.84 208.539 110.224 208.539 110.224L213.302 104.992C213.241 104.992 213.363 102.133 211.531 101.646Z" fill="#6F8E3F"/>
<path d="M215.867 99.0304C215.867 99.0304 212.142 98.9696 210.493 101.342C208.905 103.776 215.134 106.27 215.134 106.27C215.134 106.27 219.164 100.673 215.867 99.0304Z" fill="#566B30"/>
<path d="M220.508 94.8935C220.508 94.8935 221.241 96.1102 221.912 96.7186C222.584 97.327 221.363 96.2319 223.011 95.806C224.66 95.3802 223.805 96.7186 224.66 96.9011C225.515 97.0836 224.66 95.6235 226.004 94.9543C227.347 94.2851 228.202 92.6425 228.202 92.6425C228.202 92.6425 228.507 92.6426 226.859 92.3992C225.21 92.1559 227.469 91.1216 227.164 90.2699C226.859 89.4182 226.37 89.0532 226.126 86.8022L220.508 94.8935Z" fill="#566B30"/>
<path d="M218.432 94.5894V97.9354C218.432 97.9354 218.798 99.0913 219.836 99.0913C220.874 99.0913 221.363 97.692 221.363 97.692V94.5894H218.432Z" fill="#6F8E3F"/>
<path d="M225.943 91.0609C225.82 90.1483 226.492 88.8099 226.859 86.2548C226.981 85.4031 226.798 84.3688 226.553 83.2738C225.088 81.2054 222.706 79.8669 219.958 79.8669C215.5 79.8669 211.898 83.4563 211.898 87.8974C211.898 92.3384 215.5 95.9278 219.958 95.9278C222.279 95.9278 224.355 94.9544 225.82 93.4335C226.187 92.4601 226.004 91.4867 225.943 91.0609Z" fill="#6F8E3F"/>
<path d="M215.439 79.8669C212.569 80.4145 212.264 81.8137 211.836 83.7605C211.409 85.7073 210.493 85.9506 210.31 85.4031C210.127 84.8555 210.188 86.9848 211.104 86.6806C212.02 86.3765 210.859 87.654 211.104 89.2358C211.348 90.8175 211.165 91.7909 210.31 91.4867C209.455 91.1217 211.043 92.6426 211.836 92.0342C212.63 91.365 212.142 93.616 212.752 93.7985C213.363 93.981 214.279 94.7719 213.791 95.0761C213.302 95.3803 215.012 96.0495 215.439 95.0761C215.867 94.1027 215.073 95.6844 216.661 95.5628C218.248 95.4411 217.027 94.5894 217.027 94.5894C217.027 94.5894 215.623 94.8327 214.645 92.0951C213.668 89.3574 214.34 87.2282 214.645 86.7415C214.951 86.2548 216.661 87.5323 215.378 88.0799C214.157 88.6274 217.577 88.2016 216.905 86.0114C216.233 83.8213 218.493 81.692 218.37 83.6388C218.248 85.5856 220.63 84.2472 220.935 82.6654C221.241 81.0837 222.401 83.8213 223.5 83.8213C224.599 83.8213 223.378 82.3004 223.011 81.9354C222.645 81.5704 224.111 82.4221 225.271 82.8479C226.431 83.2738 227.591 85.0989 227.591 85.0989C227.591 85.0989 229.301 83.6388 228.446 82.4221C227.591 81.2662 228.08 81.0228 229.179 81.4487C230.278 81.8137 229.545 79.9886 227.652 79.8061C225.759 79.6236 225.943 79.7453 224.843 79.1369C223.744 78.5285 223.744 77.6768 220.691 77.8593C217.638 78.0419 217.882 79.4411 215.439 79.8669Z" fill="#566B30"/>
<path d="M218.432 92.521C218.432 92.521 220.813 93.7986 223.378 92.7643" stroke="#566B30" stroke-miterlimit="10"/>
<path opacity="0.26" d="M263.742 137.297C263.742 137.297 261.971 136.871 260.75 137.297C259.529 137.722 255.254 140.947 263.193 141.677C271.131 142.407 274.612 142.589 275.711 140.034C276.81 137.479 277.665 136.262 275.711 136.445C273.757 136.627 269.543 135.897 267.528 136.445C265.513 136.992 264.964 136.992 263.742 137.297Z" fill="#455526"/>
<path d="M273.452 135.897C273.452 135.897 274.612 138.513 273.818 138.696C273.024 138.878 272.353 140.095 269.543 139.973C266.734 139.852 267.65 138.635 267.65 138.635C267.65 138.635 268.261 138.452 269.605 136.871C270.887 135.289 273.452 135.897 273.452 135.897Z" fill="#566B30"/>
<path d="M265.941 135.897C265.941 135.897 266.918 138.513 266.246 138.696C265.574 138.878 265.025 140.095 262.704 139.973C260.384 139.852 261.177 138.635 261.177 138.635C261.177 138.635 261.666 138.452 262.765 136.871C263.864 135.289 265.941 135.897 265.941 135.897Z" fill="#566B30"/>
<path d="M257.269 88.4449C257.391 87.5323 256.72 86.1939 256.353 83.6388C256.231 82.7871 256.414 81.7529 256.659 80.6578C258.124 78.5894 260.506 77.251 263.254 77.251C267.711 77.251 271.314 80.8403 271.314 85.2814C271.314 89.7225 267.711 93.3118 263.254 93.3118C260.933 93.3118 258.857 92.3384 257.391 90.8175C257.025 89.905 257.208 88.9316 257.269 88.4449Z" fill="#566B30"/>
<path d="M254.827 81.8136C253.85 80.7186 254.033 80.5969 254.827 79.806C255.62 79.0152 255.498 80.5361 256.292 77.9809C257.086 75.4258 259.773 75.4866 260.872 75.365C261.971 75.2433 261.238 75.9733 263.07 76.0342C264.902 76.095 260.628 75.9125 264.841 76.1558C269.055 76.3992 269.971 77.1901 270.643 78.5893C271.314 79.9885 272.047 79.3802 272.413 82.422C272.78 85.4638 272.841 86.0114 271.742 87.3498C270.643 88.6882 270.948 88.5057 270.154 89.5399C269.36 90.5741 268.872 90.6958 269.055 88.1406C269.238 85.5855 271.62 86.8022 270.826 84.6121C270.032 82.422 268.75 82.9695 268.872 84.6121C268.994 86.2547 267.589 86.8631 267.589 86.8631C267.589 86.8631 267.895 86.133 267.589 84.6121C267.284 83.0912 267.772 83.0304 266.918 81.8136C266.002 80.5969 265.818 80.1711 263.864 80.5969C261.91 81.0228 260.323 82.9087 258.918 82.8479C257.514 82.7262 256.903 84.1254 254.827 81.8136Z" fill="#455526"/>
<path d="M263.437 92.6426C263.437 92.6426 262.826 95.3194 263.437 95.6844C264.048 96.0494 265.025 97.0836 265.635 95.6844C266.246 94.2852 264.841 91.6692 264.841 91.6692L263.437 92.6426Z" fill="#566B30"/>
<path d="M263.803 95.0151C263.803 95.0151 260.933 97.5703 260.017 100.551C259.162 103.471 260.933 114.057 260.139 114.909C259.346 115.76 262.582 117.951 268.994 117.16C275.406 116.369 272.536 111.745 272.597 109.677C272.658 107.608 269.116 98.8478 268.383 97.0836C267.773 95.3193 263.803 95.0151 263.803 95.0151Z" fill="#566B30"/>
<path d="M260.078 115.152C260.078 115.152 260.567 133.342 262.093 135.228C263.62 137.114 264.841 136.141 265.818 136.141C266.734 136.141 265.941 132.795 265.818 131.639C265.696 130.483 262.887 121.54 264.536 120.262C266.185 118.985 269.543 120.141 269.543 120.141C269.543 120.141 268.933 136.384 270.032 136.445C271.131 136.506 272.536 136.506 273.329 136.445C274.184 136.384 273.085 119.958 273.329 118.316C273.574 116.673 273.574 115.7 273.329 115.091C272.841 113.753 270.398 117.707 265.818 116.977C261.177 116.065 260.078 115.152 260.078 115.152Z" fill="#455526"/>
<path d="M260.506 98.7871C260.506 98.7871 259.162 109.494 256.72 113.388C256.231 114.118 255.254 116.734 255.132 118.133C255.071 118.681 255.743 118.559 255.682 118.802C255.621 119.35 256.109 119.046 256.781 119.289C257.452 119.472 257.147 117.646 257.452 117.951C257.88 118.376 257.452 119.715 257.758 119.35C258.857 118.255 258.674 117.099 258.674 115.943C258.674 114.787 260.628 107.365 260.506 103.532C260.384 99.6997 260.506 98.7871 260.506 98.7871Z" fill="#566B30"/>
<path d="M267.956 96.4143C267.956 96.4143 278.154 100.186 278.154 102.133C278.154 104.08 275.772 109.92 273.513 110.042C271.253 110.163 271.436 107.426 271.253 107.547C271.07 107.608 271.864 105.479 273.146 104.871C274.429 104.262 273.757 102.559 273.757 102.437C273.757 102.315 271.07 102.133 269.055 101.707C267.04 101.281 267.956 96.4143 267.956 96.4143Z" fill="#566B30"/>
<path d="M263.132 90.8783C263.132 90.8783 265.818 90.2091 266.49 89.114" stroke="#455526" stroke-miterlimit="10"/>
<path d="M35.0516 130.665C35.0516 130.665 41.1582 127.076 43.0512 130.179C44.9443 133.281 42.1352 118.377 42.0131 115.821C41.891 113.266 42.3795 113.266 40.059 113.266C37.7385 113.266 35.8455 112.11 34.9906 113.57C34.1357 115.031 34.9906 131.274 34.9906 131.274V130.665H35.0516Z" fill="#6EA1A0"/>
<path opacity="0.25" d="M123.902 133.525C123.902 133.525 119.444 136.08 119.933 137.783C120.421 139.487 121.398 140.947 124.635 141.981C127.932 142.955 132.268 142.59 134.772 140.521C137.275 138.453 138.802 138.513 141.428 138.453C144.054 138.392 146.069 136.567 146.618 138.453C147.107 140.339 145.397 142.164 151.015 142.042C156.694 141.92 158.526 140.582 159.809 140.825C161.152 141.069 160.908 139.487 162.068 141.555C163.228 143.624 167.686 146.909 172.266 144.415C176.846 141.92 176.541 139.791 176.174 136.871C175.808 133.89 168.358 131.335 164.999 132.43C161.641 133.525 156.755 131.274 152.847 130.483C148.939 129.692 149.061 130.726 143.932 130.483C138.863 130.24 137.825 128.84 135.138 128.415C132.512 127.989 125.917 132.126 123.902 133.525Z" fill="#6A3D1E"/>
<path d="M148.145 129.753C148.145 129.753 147.107 131.821 147.84 132.612C148.573 133.403 149.061 135.107 151.382 135.107C153.763 135.107 154.374 134.742 155.046 133.951C155.717 133.16 156.755 129.814 153.091 129.753C149.489 129.631 148.145 129.753 148.145 129.753Z" fill="#6A3D1E"/>
<path d="M138.558 129.388C138.558 129.388 139.474 132.856 138.741 133.646C138.008 134.437 134.527 133.646 132.146 133.646C129.764 133.646 131.047 131.821 131.23 131.152C131.535 130.179 131.902 129.753 133.55 129.388C137.153 128.597 138.558 129.388 138.558 129.388Z" fill="#6A3D1E"/>
<path d="M178.922 109.981C178.739 110.163 178.617 110.407 178.617 110.65V112.049C178.617 113.266 178.739 114.605 179.777 114.605C179.899 114.605 179.96 114.605 180.021 114.544C180.571 114.3 181.243 114.544 181.304 115.091V115.152C181.426 116.551 184.418 117.16 184.174 115.152C183.868 113.144 183.502 109.677 181.426 109.494C180.082 109.373 179.35 109.677 178.922 109.981Z" fill="#D66D27"/>
<path d="M123.719 132.795C123.719 132.795 122.009 136.992 123.719 138.087C125.429 139.183 124.146 142.772 130.07 141.008C135.993 139.304 128.543 133.464 128.543 133.464L123.719 132.795Z" fill="#BD5F28"/>
<path d="M133.489 101.707C133.489 101.707 130.986 128.232 133.062 129.51C135.077 130.726 137.153 131.882 139.168 131.03C141.184 130.179 138.924 105.357 142.405 104.506C145.764 103.715 147.229 105.114 147.229 105.114C147.229 105.114 146.741 130.483 148.206 130.24C149.672 129.935 153.946 131.639 153.763 129.144C153.519 126.65 156.877 101.221 153.763 98.422C150.649 95.6236 133.489 101.707 133.489 101.707Z" fill="#BD5F28"/>
<path d="M121.704 111.38C121.704 111.38 123.108 120.567 123.108 124.886C123.108 129.266 122.253 134.985 123.108 134.863C123.963 134.742 128.177 135.837 129.337 134.133C130.497 132.43 129.032 121.236 128.238 118.437C127.383 115.578 129.215 112.84 131.596 111.989C133.978 111.137 135.688 112.415 135.688 116.065C135.688 119.715 135.993 122.088 135.688 124.703C135.382 127.38 134.833 131.821 135.81 132.856C136.848 133.89 141.794 134.194 141.55 132.856C141.306 131.517 140.939 106.818 137.886 104.871C134.65 102.863 121.704 111.38 121.704 111.38Z" fill="#F1B61E"/>
<path d="M178.067 109.251C178.067 109.251 178.067 109.738 178.067 111.015C178.067 112.232 178.189 113.571 179.227 113.571C180.266 113.571 179.227 111.989 179.227 111.989C179.227 111.989 180.632 112.78 180.754 114.179C180.876 115.578 183.868 116.186 183.624 114.179C183.319 112.171 182.952 108.704 180.876 108.521C178.678 108.217 178.067 109.251 178.067 109.251Z" fill="#D66D27"/>
<path d="M118.467 78.8328C118.467 78.8328 113.277 82.4221 113.155 83.7605C113.032 85.1598 119.078 87.1674 119.811 86.1331C120.605 85.0989 122.803 80.232 122.192 79.502C121.582 78.8328 118.467 78.8328 118.467 78.8328Z" fill="#F1B61E"/>
<path d="M156.267 133.403C156.267 133.403 154.679 135.593 151.931 135.715C149.244 135.837 148.695 136.749 148.45 137.479C148.206 138.209 146.618 141.677 154.191 140.156C161.763 138.635 160.847 136.932 160.847 136.932C160.847 136.932 160.114 132.795 159.442 132.795C158.832 132.795 156.267 133.403 156.267 133.403Z" fill="#6A3D1E"/>
<path d="M166.282 137.053C163.656 138.878 163.412 141.859 165.243 141.92C167.075 142.042 171.228 143.624 172.205 141.069C173.182 138.513 172.877 135.228 172.877 135.228L171.839 132.308L168.541 132.916C168.541 132.916 168.968 134.498 168.236 135.228C167.442 136.08 166.282 137.053 166.282 137.053Z" fill="#6A3D1E"/>
<path d="M140.451 70.6807C140.451 70.6807 142.71 69.9507 144.054 69.9507C145.397 69.9507 147.168 70.6807 147.168 70.6807C147.168 70.6807 147.412 71.6541 149.122 71.6541C150.893 71.6541 151.87 70.4374 155.9 72.3841C159.87 74.3309 176.296 82.7872 176.296 82.7872C176.296 82.7872 173.426 83.8822 168.114 83.5781C162.801 83.213 152.969 77.9811 152.969 77.9811C152.969 77.9811 155.29 93.9811 155.29 97.6921C155.29 101.403 150.038 102.498 150.038 102.498L143.321 101.281L137.642 103.046L132.451 98.2397C132.451 98.2397 131.657 90.1484 133.55 85.2206C135.443 80.2929 136.115 76.6427 136.115 76.6427C136.115 76.6427 130.253 83.3956 127.566 83.3956C124.879 83.3956 122.314 77.5552 122.314 77.5552C122.314 77.5552 135.81 70.8024 137.52 70.8024C139.23 70.8024 139.901 71.3499 140.451 70.6807Z" fill="#F1B61E"/>
<path d="M120.605 80.4755C120.605 80.4755 110.101 81.6922 113.032 96.9013C115.964 112.11 116.513 109.677 116.513 109.677C116.513 109.677 120.36 108.704 120.605 107.122C120.849 105.54 115.719 94.2245 117.857 91.6694C119.994 89.1143 118.528 109.494 119.872 110.894C121.215 112.293 138.436 109.677 139.23 106.513C140.084 103.472 128.482 79.0762 125.856 79.1371C123.23 79.3804 121.337 80.293 120.605 80.4755Z" fill="#D66D27"/>
<path d="M134.1 61.2511C134.1 61.2511 134.589 64.5363 135.932 65.9355C137.275 67.3348 138.802 68.5515 138.802 68.5515C138.802 68.5515 138.375 67.2131 139.23 67.3348C140.084 67.3956 138.863 67.6998 140.023 68.4298C141.184 69.099 144.786 70.1941 147.779 68.6732C150.771 67.1523 153.458 65.9964 153.641 64.4755C153.824 62.9545 157.366 57.5401 154.679 55.4108C152.847 53.9507 139.901 51.6998 134.466 53.9507C131.657 54.8633 134.1 61.2511 134.1 61.2511Z" fill="#994A23"/>
<path d="M107.659 78.8937C107.659 78.8937 111.994 83.3347 120.055 79.502C121.582 78.772 124.268 78.8937 124.268 78.8937C124.268 78.8937 129.215 77.6769 131.718 75.4868C133.734 73.6617 133.489 71.2891 133.489 67.6389L122.253 73.9659L107.659 78.8937Z" fill="#994A23"/>
<path d="M110.651 85.0991C110.04 86.8025 107.964 88.4451 110.651 89.601C113.338 90.696 113.338 89.1751 113.338 88.2017C113.338 87.2283 115.292 88.9318 115.475 86.985C115.597 85.0382 114.132 81.8139 112.422 83.5173C110.651 85.1599 110.651 85.0991 110.651 85.0991Z" fill="#FBDA35"/>
<path d="M120.299 78.8328C120.299 78.8328 119.322 82.118 120.299 82.4221C121.276 82.7872 123.169 83.1522 124.391 82.4221C125.612 81.6921 122.436 80.232 123.414 78.1027C124.452 76.0343 120.299 78.8328 120.299 78.8328Z" fill="#E7D170"/>
<path d="M161.03 72.3841C161.03 72.3841 160.541 73.7833 160.908 74.6959C162.74 77.7377 165.488 79.5628 169.396 79.5628C174.586 75.7909 174.587 72.9316 175.075 68.9164C175.441 66.0571 172.816 61.251 171.045 58.3917C170.556 58.3309 169.946 58.27 169.457 58.27C167.869 58.27 166.343 58.635 164.999 59.3042C163.412 61.4944 161.763 63.9886 161.335 65.6312C160.358 69.0989 160.602 70.559 160.602 70.559" fill="#D66D27"/>
<path d="M170.617 58.3916C172.388 61.2509 175.014 66.1178 174.648 68.9163C174.159 72.9315 174.159 75.8517 168.968 79.5627H169.029C174.953 79.5627 179.716 74.7566 179.716 68.9163C179.655 63.5627 175.686 59.1216 170.617 58.3916Z" fill="#BD5F28"/>
<path d="M145.764 69.829C145.275 69.9507 144.603 70.0724 143.626 69.9507C142.649 69.9507 142.039 69.829 141.611 69.5857C141.489 70.3157 141.367 71.0458 141.672 71.2891C142.527 71.9583 145.031 73.175 145.764 71.2891C145.947 70.9241 145.947 70.3766 145.764 69.829Z" fill="#FBDA35"/>
<path d="M145.764 69.829C145.458 68.1256 144.176 66.3613 144.176 66.3613H142.771C142.771 66.3613 141.916 68.1864 141.611 69.6465C142.1 69.8898 142.771 69.9507 143.626 70.0115C144.603 70.0724 145.275 69.9507 145.764 69.829Z" fill="#DBB82A"/>
<path d="M160.236 59.4869C160.236 59.4869 157.732 61.2511 161.335 61.4337C164.938 61.5553 167.259 60.0344 167.991 59.4869C168.724 58.8785 169.579 62.3462 171.472 62.3462C173.365 62.3462 174.586 64.1105 175.136 62.3462C175.686 60.5819 174.709 65.6314 176.602 66.4222C178.495 67.2131 175.93 70.7416 176.602 71.4717C177.273 72.2017 175.258 74.696 176.602 74.696C177.945 74.696 181.365 72.1409 181.731 69.4032C182.159 66.7264 180.632 65.023 180.632 65.023C180.632 65.023 182.769 62.5287 181.792 60.6428C180.815 58.8177 177.823 57.7835 177.823 57.7835C177.823 57.7835 178.067 55.2283 174.159 55.4108C170.373 55.5325 167.32 56.2626 167.32 56.2626C167.32 56.2626 166.159 54.5591 163.289 55.4108C160.419 56.2626 162.068 57.601 162.068 57.601L160.236 59.4869Z" fill="#994A23"/>
<path d="M138.497 53.6464C139.962 56.1407 141.061 56.1407 141.061 56.1407C141.061 56.1407 141 50.9696 143.687 50.1787C145.458 49.7529 147.046 48.6578 148.023 47.9278C146.863 47.5019 145.519 47.1978 144.237 47.1978C142.771 47.1978 141.489 47.5019 140.146 47.9886C138.924 49.8746 137.642 52.308 138.497 53.6464Z" fill="#DBB82A"/>
<path d="M147.962 47.8669C146.985 48.597 145.336 48.3536 143.626 48.9012C140.939 49.6312 141 56.0799 141 56.0799C141 56.0799 139.84 56.1407 138.436 53.5856C137.642 52.1863 138.863 49.8137 140.145 47.9278C137.52 49.0228 135.382 51.1521 134.283 53.6464C134.344 58.0266 135.077 62.5894 135.688 64.1711C137.642 66.7263 140.756 68.3688 144.176 68.3688C146.496 68.3688 147.229 68.0038 149.855 66.6046C151.259 65.2662 152.053 64.0495 152.786 61.8593C153.397 60.0951 153.58 55.4715 153.763 52.8555C152.542 50.6654 150.527 48.7795 147.962 47.8669Z" fill="#FBDA35"/>
<path d="M133.734 54.8632C135.199 57.3575 136.298 57.3575 136.298 57.3575C136.298 57.3575 136.237 52.1864 138.924 51.3955C140.695 50.9697 142.283 49.8746 143.26 49.1446C142.1 48.7187 140.756 48.4146 139.474 48.4146C138.008 48.4146 136.726 48.7187 135.382 49.2054C134.161 51.0305 133.001 53.464 133.734 54.8632Z" fill="#DBB82A"/>
<path d="M133.856 60.6427C133.856 60.6427 131.169 57.4183 131.902 54.194C132.634 50.9697 130.436 47.4411 134.955 45.9202C139.474 44.3993 135.566 41.9659 144.176 43.5476C152.786 45.0685 150.832 49.4487 150.832 49.4487C150.832 49.4487 155.778 47.4411 155.9 51.8214C155.961 56.2624 157.244 57.54 154.923 59.2434C152.603 60.9468 155.229 56.8708 152.664 53.9506C150.099 51.0305 149.244 51.943 149.244 51.943C149.244 51.943 148.084 46.8328 144.298 47.867C140.451 48.7795 139.901 54.559 139.901 54.559C139.901 54.559 137.886 54.194 137.764 51.943C137.703 49.6921 134.65 54.4373 135.871 56.5058C137.092 58.6351 133.734 58.2092 133.611 57.2358C133.489 56.1408 133.856 60.6427 133.856 60.6427Z" fill="#D66D27"/>
<path d="M139.901 46.7112C139.901 46.7112 137.886 49.6922 138.436 51.5173C139.046 53.2815 139.107 53.7682 139.107 53.7682C139.107 53.7682 138.252 51.5173 139.107 49.6922C139.962 47.8671 139.901 46.7112 139.901 46.7112Z" fill="#F68D35"/>
<path d="M136.543 45.9202C136.543 45.9202 133.978 47.0152 133.428 48.1103C132.879 49.2053 133.001 51.8821 133.001 51.8821C133.001 51.8821 133.306 49.327 134.222 48.4753C135.138 47.6236 136.543 45.9202 136.543 45.9202Z" fill="#F68D35"/>
<path d="M115.475 71.654C113.46 68.1864 114.071 62.9544 114.986 58.9392C111.628 60.7643 109.368 64.232 109.368 68.308C109.368 74.2092 114.193 78.9544 120.055 78.9544C120.543 78.9544 121.154 78.8936 121.643 78.8327C119.933 77.3727 117.49 75.0609 115.475 71.654Z" fill="#E7D170"/>
<path d="M128.055 61.251C126.1 59.0609 123.23 57.6008 119.994 57.6008C118.162 57.6008 116.391 58.0267 114.864 58.9392C114.009 62.8936 113.338 68.1864 115.353 71.6541C117.368 75.0609 119.811 77.4944 121.459 78.8328C124.085 78.4678 126.528 77.0685 128.116 75.1217C129.825 71.2282 129.032 65.3879 128.055 61.251Z" fill="#F9E289"/>
<path d="M155.9 109.008C155.9 109.008 152.236 129.692 155.778 132.856C159.198 136.08 160.358 132.856 160.358 132.856C160.358 132.856 158.832 113.51 163.045 113.388C167.259 113.266 167.869 113.631 167.869 113.631C167.869 113.631 165.182 133.281 168.175 134.377C171.167 135.472 173.06 134.316 173.06 134.316C173.06 134.316 176.296 112.293 174.037 109.799C171.777 107.304 155.9 109.008 155.9 109.008Z" fill="#BD5F28"/>
<path d="M115.475 57.1143C115.475 57.1143 112.91 54.4984 110.284 57.601C107.598 60.7037 109.613 76.8862 103.689 75.3653C97.766 73.8444 107.475 82.1181 111.75 80.1105C115.964 78.1029 115.536 77.9204 115.536 77.9204C115.536 77.9204 111.445 75.5478 111.139 74.1486C111.139 74.1486 115.719 71.8368 116.513 65.4489C116.513 63.198 116.391 59.7303 115.475 56.9927C115.475 57.1143 115.475 57.1143 115.475 57.1143Z" fill="#F68D35"/>
<path d="M133.489 67.6389C133.489 67.6389 131.352 68.6123 130.741 64.1713C130.07 59.6694 127.444 51.8214 121.154 54.0724C116.635 55.6541 115.658 56.6275 115.475 56.9925C116.33 59.6693 116.513 63.1979 116.513 65.4488C116.513 65.3271 116.574 65.0838 116.574 64.9621C117.246 58.1484 119.933 60.3994 120.543 60.7644C121.154 61.1903 119.872 57.5401 124.207 58.5743C128.543 59.6085 126.833 70.1332 130.253 70.7416C133.673 71.1066 133.489 67.6389 133.489 67.6389Z" fill="#D66D27"/>
<path d="M167.259 81.7529C167.259 81.7529 159.87 83.7605 157.549 89.2358C155.168 94.711 150.893 105.357 151.504 106.331C152.114 107.304 154.435 111.259 155.839 109.981C157.244 108.764 160.541 89.9658 161.824 89.9658C163.106 89.9658 152.725 108.278 154.74 109.251C156.755 110.224 157.793 112.901 167.381 111.624C176.968 110.346 176.052 108.703 176.052 108.703C176.052 108.703 172.205 91.0609 174.037 90.7567C175.869 90.4525 175.991 110.954 177.823 110.954C179.655 110.954 182.159 109.008 182.159 109.008C182.159 109.008 179.96 85.8898 176.907 83.7605C173.67 81.692 167.259 81.7529 167.259 81.7529Z" fill="#6A3D1E"/>
<path d="M166.465 83.213C165.732 82.483 166.22 83.1522 165.732 82.483C167.198 81.6312 167.136 77.251 167.198 76.5818C167.259 75.7909 170.434 78.3461 170.434 78.3461C170.556 77.6769 170.495 82.4221 170.312 82.1179C169.274 83.2738 167.808 84.4906 166.465 83.213Z" fill="#D66D27"/>
<path d="M135.627 132.795C135.627 132.795 134.222 134.802 135.627 135.715C137.031 136.627 140.939 137.601 143.199 135.715C145.458 133.829 139.901 132.369 139.901 132.369L135.627 132.795Z" fill="#BD5F28"/>
<path d="M117.734 109.312C117.734 109.312 115.841 110.103 117.734 111.989C119.627 113.875 120.605 115.396 120.605 115.396C120.605 115.396 122.009 113.631 121.643 111.319C121.276 109.008 120.605 107.183 120.605 107.183L117.734 109.312Z" fill="#F9E289"/>
<path d="M178.617 82.7264C178.617 82.7264 174.831 80.5971 174.403 82.7264C173.976 84.8557 169.579 89.0534 174.403 87.4716C179.227 85.9507 176.785 84.7948 176.785 84.7948C176.785 84.7948 174.22 89.4792 176.785 89.175C179.35 88.8709 180.143 89.4792 180.021 87.4716C179.899 85.464 181.182 87.2283 178.617 82.7264Z" fill="#FBDA35"/>
<path d="M146.008 77.3118H142.832V80.2319H139.901V83.2737H142.832V86.1939H146.008V83.2737H148.817V80.2319H146.008V77.3118Z" fill="#D66D27"/>
<path d="M42.0131 95.441C41.8299 95.3802 42.2574 95.3802 43.0512 95.3194C42.2574 93.9809 40.975 91.6692 40.3644 89.6007C38.7767 89.7224 38.3492 89.4182 38.3492 89.4182C38.3492 89.4182 34.6853 90.2091 33.7693 91.4867C32.8533 92.7642 28.5787 98.057 26.8689 102.072C25.159 106.148 25.5254 106.817 26.8689 107.365C28.2123 107.852 29.4336 107.852 29.4336 107.852C29.4336 107.852 31.0213 103.715 32.0594 101.281C33.0975 98.8479 34.5021 96.1102 34.5021 96.1102C34.5021 96.1102 28.884 110.407 30.1053 110.893C31.3266 111.441 34.9906 112.719 38.3492 112.658C41.7078 112.597 45.6771 112.293 45.5549 111.563C45.4328 110.894 42.9291 95.7452 42.0131 95.441Z" fill="#076B69"/>
<path d="M50.0127 95.3193C49.2189 94.0417 47.9975 92.0341 47.8144 91.2433C45.3717 91.4866 42.2574 89.4182 40.5475 89.5398C40.4865 89.5398 40.4254 89.5398 40.3643 89.5398C40.9139 91.6083 42.2574 94.5893 43.1123 95.9277C44.3947 95.9277 47.3869 95.441 50.0127 95.3193Z" fill="#1F8C8F"/>
<path opacity="0.25" d="M48.8525 127.198C48.8525 127.198 34.3189 131.943 31.0213 134.681C27.7848 137.418 29.3725 140.338 34.1967 139.608C39.0209 138.878 39.2041 137.783 41.7078 137.844C44.2115 137.905 46.3488 137.844 46.3488 137.844C46.3488 137.844 49.0357 139.122 51.7836 137.844C54.5316 136.567 55.3254 141.799 61.3709 139.73C67.4775 137.662 65.9508 132.186 61.3709 131.578C56.791 130.97 48.8525 127.198 48.8525 127.198Z" fill="#114541"/>
<path d="M33.6471 133.464C33.6471 133.464 32.5479 135.897 33.2807 136.08C34.0135 136.262 34.6852 137.418 37.3111 137.297C39.9369 137.175 39.082 136.08 39.082 136.08C39.082 136.08 38.5324 135.897 37.25 134.437C36.0287 132.916 33.6471 133.464 33.6471 133.464Z" fill="#114541"/>
<path d="M42.2574 132.916C42.2574 132.916 41.3414 135.35 41.9521 135.532C42.5627 135.715 43.1123 136.871 45.3107 136.749C47.509 136.627 46.7762 135.532 46.7762 135.532C46.7762 135.532 46.3488 135.35 45.2496 133.89C44.1504 132.369 42.2574 132.916 42.2574 132.916Z" fill="#114541"/>
<path d="M61.9816 133.585C61.9816 133.585 63.0807 136.019 62.3479 136.201C61.6152 136.384 60.9434 137.54 58.3176 137.418C55.6918 137.296 56.5467 136.201 56.5467 136.201C56.5467 136.201 57.0963 136.019 58.3787 134.559C59.6611 133.038 61.9816 133.585 61.9816 133.585Z" fill="#114541"/>
<path d="M53.4324 133.038C53.4324 133.038 54.3484 135.472 53.7377 135.654C53.1271 135.837 52.5775 136.992 50.3791 136.871C48.1807 136.749 48.9135 135.654 48.9135 135.654C48.9135 135.654 49.341 135.472 50.4402 134.011C51.4783 132.551 53.4324 133.038 53.4324 133.038Z" fill="#114541"/>
<path d="M49.9516 109.738C49.9516 109.738 49.341 133.525 50.6844 134.315C52.0279 135.106 54.1041 134.924 54.1041 134.924C54.1041 134.924 51.6615 114.787 53.1271 114.787C54.5316 114.726 58.7451 114.787 58.7451 114.787V134.924C58.7451 134.924 61.1267 135.046 62.1037 134.315C63.0808 133.585 62.6533 110.893 62.6533 110.893L49.9516 109.738Z" fill="#114541"/>
<path d="M61.0045 99.4563C61.0045 99.4563 60.7602 98.3613 61.3098 98.5438C61.7373 98.6655 63.6914 98.1179 64.7295 97.8137C64.7295 96.597 64.6684 95.4411 64.4852 94.5286C63.8746 90.7567 55.4475 87.6541 55.4475 87.6541C54.043 87.6541 53.3102 88.0799 52.7607 88.3233C52.2111 88.5666 51.3562 88.9925 50.4402 90.8175C49.4021 93.0685 48.6693 98.6046 48.6693 98.6046L47.7533 110.407C47.7533 110.407 48.0586 112.354 51.8447 113.084C54.4094 113.57 59.0504 112.597 61.1877 112.415C60.9434 107.183 61.0045 99.4563 61.0045 99.4563Z" fill="#076B69"/>
<path d="M64.7295 97.8137C63.6914 98.1179 61.6762 98.6654 61.3098 98.5438C60.7602 98.3613 61.0045 99.4563 61.0045 99.4563C61.0045 99.4563 60.9434 107.122 61.1877 112.414C61.8594 112.354 62.2258 112.354 62.2869 112.354C62.6533 112.354 63.8135 112.901 64.1189 111.684C64.241 111.137 64.0578 109.19 63.8746 108.582C63.4471 107.061 64.7906 101.707 64.7295 97.8137Z" fill="#1F8C8F"/>
<path d="M37.4332 72.9316C37.4332 72.9316 36.7615 72.3232 35.1127 72.8707C33.4639 73.4183 33.2197 73.905 33.2197 73.905C33.2197 73.905 31.0824 74.0875 30.5328 76.886C29.9832 79.6844 29.9221 79.6236 30.2885 82.7263C30.6549 85.8289 31.2045 87.7757 30.6549 88.8707C30.1664 89.9658 30.5328 90.3308 32.4869 89.7833C34.441 89.2358 34.0746 89.2966 35.9066 89.4183C37.7996 89.5399 39.4484 89.7833 41.952 88.9924C44.4557 88.2015 45.7992 89.4791 46.1656 89.2966C46.593 89.1141 47.0205 89.5399 46.1656 87.8974C45.3107 86.2548 46.6541 82.2396 46.6541 81.5095C46.6541 80.7795 47.2648 75.6084 44.0283 73.5399C40.8529 71.4715 40.3643 71.7757 37.4332 72.9316Z" fill="#0B5753"/>
<path d="M31.632 109.859C31.632 109.859 32.7312 129.205 33.0365 130.909C33.3418 132.612 33.1586 133.951 33.8914 133.951C34.6242 133.951 36.5172 134.681 36.5783 133.951C36.6393 133.221 32.9754 114.3 37.1279 114.3C39.2652 114.3 40.059 114.726 40.059 114.726C40.059 114.726 41.4025 119.046 41.4025 123.426C41.4025 127.806 41.4025 133.647 41.4025 133.647C41.4025 133.647 43.723 134.681 45.1885 133.768C46.593 132.856 45.0664 122.635 45.1885 119.897C45.3107 117.16 44.0893 110.042 43.4787 109.677C43.0512 109.373 31.632 109.859 31.632 109.859Z" fill="#0B5753"/>
<path d="M55.4475 86.0723C59.697 86.0723 63.1418 82.6403 63.1418 78.4069C63.1418 74.1734 59.697 70.7415 55.4475 70.7415C51.1981 70.7415 47.7533 74.1734 47.7533 78.4069C47.7533 82.6403 51.1981 86.0723 55.4475 86.0723Z" fill="#1F8C8F"/>
<path d="M56.852 85.5247V88.6882C56.852 88.6882 56.4856 89.7832 55.5086 89.7832C54.5316 89.7832 54.043 88.4448 54.043 88.4448V85.5247H56.852Z" fill="#1F8C8F"/>
<path d="M58.9893 71.5932C58.9893 71.5932 58.4397 72.9924 55.4475 72.9924C52.4553 72.9924 51.9057 71.5932 51.9057 71.5932C51.9057 71.5932 51.1729 70.7415 55.4475 70.7415C59.7832 70.7415 58.9893 71.5932 58.9893 71.5932Z" fill="#6EA1A0"/>
<path d="M50.9898 72.2014C50.9898 72.2014 47.7533 73.844 47.7533 76.1558C47.7533 78.4676 48.3639 78.4676 48.3639 78.4676C48.3639 78.4676 48.425 77.555 48.425 76.1558C48.425 74.7565 49.0967 75.1824 49.341 74.3307C49.6463 73.4181 50.9898 72.2014 50.9898 72.2014Z" fill="#6EA1A0"/>
<path d="M59.9664 72.2014C59.9664 72.2014 63.2029 73.844 63.2029 76.1558C63.2029 78.4676 62.5922 78.4676 62.5922 78.4676C62.5922 78.4676 62.5311 77.555 62.5311 76.1558C62.5311 74.7565 61.8594 75.1824 61.6152 74.3307C61.3098 73.4181 59.9664 72.2014 59.9664 72.2014Z" fill="#6EA1A0"/>
<path d="M52.3332 83.3954C52.3332 83.3954 55.9971 81.9353 57.768 81.5094C58.8062 81.2661 58.2566 81.9961 58.4398 81.8136C58.9894 81.3269 57.768 82.9695 56.2414 83.3345C54.7758 83.8212 52.3332 83.3954 52.3332 83.3954Z" fill="#6EA1A0"/>
<path d="M61.3098 112.11C61.3098 112.11 61.6762 114.848 62.1037 115.76C62.5311 116.673 63.2639 117.281 63.2029 116.43C63.1418 115.639 62.8975 115.03 62.8975 115.03C62.8975 115.03 63.2639 115.517 63.8135 116.673C64.3631 117.829 64.302 119.289 65.3402 118.681C66.3783 118.072 66.5615 118.498 66.3783 117.525C66.134 116.551 65.8287 115.456 65.8287 114.909C65.8287 114.361 66.3172 112.84 65.157 111.928C63.9967 111.015 64.0578 111.015 64.0578 111.015C64.0578 111.015 63.1418 112.11 61.3098 112.11Z" fill="#1F8C8F"/>
<path d="M26.3803 107.122C26.3803 107.122 25.4643 109.19 25.7086 110.407C25.9529 111.623 25.7697 112.901 26.3803 112.658C26.991 112.414 28.8229 111.684 28.8229 111.684C28.8229 111.684 28.7619 109.677 28.8229 108.764C28.884 107.852 26.3803 107.122 26.3803 107.122Z" fill="#6EA1A0"/>
<path d="M36.9447 87.6541C36.9447 87.6541 36.334 90.5134 36.9447 90.8175C37.5553 91.1217 39.5094 91.4259 39.998 90.8175C40.4865 90.2092 38.8377 87.6541 38.8377 87.6541H36.9447Z" fill="#6EA1A0"/>
<path d="M61.6152 88.6882C60.8824 88.6273 59.7832 88.9923 59.4168 88.6882C59.0504 88.384 58.684 89.0532 58.684 89.0532C59.8443 90.0266 59.9053 90.2699 60.5771 90.4524C61.2488 90.6349 60.0275 91.5475 60.5771 92.46C61.1267 93.3726 61.493 93.9201 61.5541 92.46C61.6152 91 62.1648 90.9391 62.1648 91.9733C62.1648 93.0076 61.493 94.346 62.409 94.0418C63.2639 93.7376 63.1418 93.6159 63.0807 92.5209C63.0197 91.4258 63.5693 91.4258 63.1418 90.0266C62.7754 88.5665 61.6152 88.6882 61.6152 88.6882Z" fill="#6EA1A0"/>
<path d="M63.1418 89.9657C63.1418 89.9657 64.241 90.7566 64.3021 91.365C64.3631 91.9733 64.1799 93.1901 64.1799 93.1901C64.1799 93.1901 63.6303 93.5551 62.5922 91.6083C61.5541 89.6615 63.1418 89.9657 63.1418 89.9657Z" fill="#6EA1A0"/>
<path d="M43.9672 81.0227C44.0893 79.2585 43.6619 77.4942 43.4176 76.5817C42.1353 75.3041 40.3033 74.4524 38.3492 74.4524C36.5172 74.4524 34.8074 75.1824 33.5861 76.2775C33.3418 77.0684 32.7922 79.0151 32.9143 80.9619C33.0365 82.7262 32.3648 84.5513 32.9754 86.133C34.2578 87.5931 36.2119 88.5665 38.3492 88.5665C40.6697 88.5665 42.7459 87.4714 44.0283 85.768C44.3947 84.3079 43.8451 82.6045 43.9672 81.0227Z" fill="#6EA1A0"/>
<path d="M33.2197 76.6426C33.2197 76.6426 34.7463 76.0342 36.0898 78.7718C37.4332 81.5095 39.2041 80.1711 41.7688 79.8669C44.3336 79.5627 44.2115 80.4753 44.2115 80.4753C44.2115 80.4753 45.6771 75.6083 42.9291 74.4525C40.1811 73.2966 42.2574 74.4525 38.1049 74.4525C33.9525 74.4525 33.2197 76.6426 33.2197 76.6426Z" fill="#0B5753"/>
<path d="M36.7615 89.175C35.7844 88.9925 31.632 90.635 31.3266 91.1826C31.0213 91.6693 28.1512 93.3118 32.548 95.4411L36.4562 91.5476L36.7615 89.175Z" fill="#1F8C8F"/>
<path d="M35.9066 91.7299C35.9066 91.7299 35.6012 93.9809 36.7004 94.9543C37.7996 95.9277 38.7156 96.3535 38.7156 96.3535C38.7156 96.3535 40.059 95.9885 40.4865 94.8326C40.9139 93.6767 41.2193 91.5474 40.8529 91.3041C40.4254 91.0607 40.6697 90.9999 40.6697 91.6691C40.6697 92.3383 40.6697 94.1026 40.1811 94.5892C39.6926 95.0759 38.7766 95.806 38.7766 95.806C38.7766 95.806 37.1889 94.7718 36.7615 93.1292C36.334 91.5474 36.334 90.8174 36.334 90.8174L35.9066 91.7299Z" fill="#114541"/>
<path d="M39.9979 90.8175C39.9979 90.8175 44.3336 104.688 44.1504 111.624C43.9672 118.559 44.8832 130.605 44.8832 130.605C44.8832 130.605 47.3258 131.76 47.3869 126.346C47.4479 120.932 45.7992 109.798 44.6389 104.992C43.4787 100.186 43.1123 98.5437 43.1123 98.5437C43.1123 98.5437 43.6619 98.9088 46.1045 97.9354C48.5471 96.962 49.4631 95.1369 49.4631 95.1369C49.4631 95.1369 47.4479 95.3802 45.8602 95.3194C44.2725 95.2586 42.807 93.1901 42.0742 92.3993C41.3414 91.6084 41.7078 89.9658 41.2803 89.9658C40.8529 89.9658 40.7918 89.2358 40.059 89.4791C39.3262 89.7225 39.9979 90.8175 39.9979 90.8175Z" fill="#6EA1A0"/>
<path d="M36.7615 90.5133C36.7615 90.5133 32.7922 108.886 32.7311 112.658C32.6701 116.43 33.0365 130.97 33.0365 130.97C33.0365 130.97 28.0902 132.856 28.3344 128.293C28.5787 123.73 28.6397 112.049 30.777 106.148C32.9143 100.247 34.1356 96.8403 34.1356 96.8403C34.1356 96.8403 32.4258 100.308 31.632 102.376C30.8381 104.445 29.4336 107.913 29.4336 107.913C29.4336 107.913 25.5254 107.487 25.6475 106.392C25.7697 105.297 26.1361 102.559 28.4566 99.0913C30.716 95.6236 32.3037 92.8251 33.2197 91.9734C34.1356 91.1825 34.3799 90.7567 35.5402 90.3308C36.7004 89.905 36.8225 88.6274 36.7615 90.5133Z" fill="#6EA1A0"/>
<path d="M38.4102 95.8062C38.4102 95.8062 39.6926 102.255 37.8607 104.627" stroke="#114541" stroke-miterlimit="10"/>
<path d="M37.1279 106.453C37.8361 106.453 38.4102 105.881 38.4102 105.175C38.4102 104.469 37.8361 103.897 37.1279 103.897C36.4196 103.897 35.8455 104.469 35.8455 105.175C35.8455 105.881 36.4196 106.453 37.1279 106.453Z" fill="#114541"/>
<path d="M37.1279 106.148C37.6675 106.148 38.1049 105.712 38.1049 105.175C38.1049 104.637 37.6675 104.201 37.1279 104.201C36.5883 104.201 36.1508 104.637 36.1508 105.175C36.1508 105.712 36.5883 106.148 37.1279 106.148Z" fill="#6EA1A0"/>
<path d="M54.043 87.8364C54.043 87.8364 53.1881 88.8098 52.7607 89.4182C52.2721 90.0265 54.2262 91.6083 54.6537 92.3992C55.0812 93.19 59.0504 90.0874 58.5619 89.7832C58.0734 89.479 56.6689 88.4448 56.2414 88.2623C55.8139 88.0798 54.6537 87.8364 54.6537 87.8364H54.043Z" fill="#1F8C8F"/>
<path d="M55.5086 99.213C55.0812 98.0571 55.8139 95.8062 55.8139 95.8062H59.1115C59.1115 95.8062 60.6992 98.483 59.4779 99.4563" stroke="#0B5753" stroke-width="0.5" stroke-miterlimit="10"/>
<path d="M56.4246 96.0495L57.2185 100.186L60.5771 99.3347L59.5389 95.502L56.4246 96.0495Z" fill="#6EA1A0"/>
<path d="M54.043 92.7643L52.4553 88.6274C52.4553 88.6274 50.6234 89.8442 48.3029 91.2434C48.7914 92.156 49.4631 93.5552 50.0127 95.137C52.6385 93.251 54.043 92.7643 54.043 92.7643Z" fill="#076B69"/>
<path d="M50.0127 95.137C49.8906 95.1978 49.8295 95.2586 49.7074 95.3803L50.9897 98.6046C50.7455 97.3879 50.3791 96.1712 50.0127 95.137Z" fill="#076B69"/>
<path d="M48.3029 91.2434C48.2418 91.2434 48.1807 91.3042 48.1807 91.3042L49.7684 95.3195C49.8906 95.2586 49.9516 95.1978 50.0738 95.0761C49.402 93.4944 48.7303 92.0951 48.3029 91.2434Z" fill="#076B69"/>
<path d="M32.3647 94.1634C33.2416 94.1634 33.9525 93.6187 33.9525 92.9467C33.9525 92.2747 33.2416 91.73 32.3647 91.73C31.4879 91.73 30.777 92.2747 30.777 92.9467C30.777 93.6187 31.4879 94.1634 32.3647 94.1634Z" fill="#1F8C8F"/>
<path d="M31.0824 92.7642C31.0824 92.7642 30.8381 93.8592 31.2045 94.4676C31.5098 95.076 31.7541 95.2585 31.9373 95.1368C32.1816 95.0151 32.1816 93.8592 32.1816 93.8592C32.1816 93.8592 32.2426 94.711 32.4869 95.0151C32.7311 95.2585 32.9143 95.441 32.9754 95.1976C33.1586 94.711 32.7922 93.8592 32.7922 93.8592C32.7922 93.8592 33.3418 95.441 33.8303 95.1368C34.3188 94.8326 34.2578 92.825 33.7082 92.3992" fill="#1F8C8F"/>
<path d="M52.3332 90.0266C52.3332 90.0266 52.5164 91.73 53.5545 92.5209C54.6537 93.3118 54.898 93.616 54.898 93.616C54.898 93.616 56.6078 93.3118 57.5848 92.3992C58.5619 91.4259 58.9283 90.8783 58.9283 90.8783" stroke="#0B5753" stroke-width="0.5" stroke-miterlimit="10"/>
<path d="M34.2578 82.7263C34.2578 83.213 34.3188 83.4563 34.8074 83.4563C35.2959 83.4563 36.7615 83.4563 36.7615 83.4563C36.7615 83.4563 37.4332 83.2738 37.4332 82.7871C37.4332 82.3004 36.8836 82.1179 36.8836 82.1179H34.8074C34.8074 82.1179 34.2578 82.0571 34.2578 82.7263Z" stroke="#0B5753" stroke-width="0.5" stroke-miterlimit="10"/>
<path d="M42.3795 82.7263C42.3795 83.213 42.3184 83.4563 41.8299 83.4563C41.3414 83.4563 39.8758 83.4563 39.8758 83.4563C39.8758 83.4563 39.2041 83.2738 39.2041 82.7871C39.2041 82.3004 39.7537 82.1179 39.7537 82.1179H41.7689C41.8299 82.1179 42.3795 82.0571 42.3795 82.7263Z" stroke="#0B5753" stroke-width="0.5" stroke-miterlimit="10"/>
<path d="M37.4332 82.8479C37.4332 82.8479 38.4713 82.1179 39.2041 82.8479" stroke="#0B5753" stroke-width="0.5" stroke-miterlimit="10"/>
<path d="M34.2578 82.7263H33.7082L32.2426 81.4487" stroke="#0B5753" stroke-width="0.5" stroke-miterlimit="10"/>
<path d="M42.3795 82.7263H42.868L44.5779 81.4487" stroke="#0B5753" stroke-width="0.5" stroke-miterlimit="10"/>
<g clip-path="url(#clip0)">
<path d="M26.4944 38.706C37.2609 38.706 45.9888 30.0413 45.9888 19.353C45.9888 8.66463 37.2609 0 26.4944 0C15.7279 0 7 8.66463 7 19.353C7 30.0413 15.7279 38.706 26.4944 38.706Z" fill="white"/>
<path d="M43.6621 18.5664H30.4059V9.68896H40.6687C42.4295 12.2361 43.5111 15.2826 43.6621 18.5664Z" fill="#F17A22"/>
<path d="M43.6746 19.6775C43.6118 22.9363 42.6307 25.9828 40.9706 28.5549C40.719 28.942 40.4675 29.304 40.1908 29.6661C39.7632 30.228 39.2852 30.7649 38.7947 31.2768C38.4426 31.6389 38.0653 31.9885 37.6754 32.3256C35.6128 34.0736 33.1351 35.3472 30.4184 35.9715C30.0537 36.0589 29.6764 36.1338 29.2991 36.1962C28.3935 36.346 27.4628 36.4209 26.507 36.4209C24.4066 36.4209 22.3817 36.0464 20.5203 35.3597V29.6786H38.7947V19.69L43.6746 19.6775Z" fill="#F6EB00"/>
<path d="M37.6628 19.6775V28.5549H12.0182C10.3581 25.9828 9.37706 22.9488 9.31418 19.6775H37.6628Z" fill="#E62825"/>
<path d="M39.8261 8.57772H20.5077V3.35866C22.3691 2.67194 24.394 2.29736 26.4944 2.29736C27.4377 2.29736 28.381 2.37228 29.2865 2.52211C29.6638 2.58454 30.0411 2.65945 30.4059 2.74685C33.1351 3.37114 35.6128 4.64469 37.6628 6.3927C38.0527 6.72982 38.43 7.06694 38.7822 7.42902C39.1469 7.79111 39.4991 8.17817 39.8261 8.57772Z" fill="#9DC950"/>
<path d="M19.3885 3.80811V18.5663H9.32686C9.47778 15.2826 10.5594 12.236 12.3328 9.68892C12.5969 9.30186 12.8736 8.93977 13.1754 8.57768C14.8356 6.55498 16.9611 4.90686 19.3885 3.80811Z" fill="#57C2F0"/>
<path d="M59.0941 18.5038V11.774L56.6416 16.6684H55.2329L52.7804 11.774V18.5038H50.1644V7.2666H53.0068L55.9372 13.1349L58.8803 7.2666H61.6975V18.5038H59.0941Z" fill="#6E6F71"/>
<path d="M63.6595 9.25198V6.95459H66.2127V9.25198H63.6595ZM63.6595 18.504V10.2009H66.2127V18.504H63.6595Z" fill="#6E6F71"/>
<path d="M71.2686 18.6662C70.5518 18.6662 69.86 18.5539 69.1683 18.3291C68.4765 18.1044 67.898 17.7672 67.4201 17.3427L68.3256 15.7945C68.8413 16.1441 69.3318 16.4063 69.8223 16.6061C70.3002 16.7934 70.7656 16.8932 71.2183 16.8932C71.5453 16.8932 71.7969 16.8308 71.9855 16.7184C72.1616 16.6061 72.2622 16.4313 72.2622 16.2065C72.2622 15.9818 72.149 15.807 71.9226 15.6821C71.6963 15.5448 71.2938 15.4074 70.7152 15.2576C70.1493 15.0953 69.6714 14.9455 69.294 14.7956C68.9042 14.6458 68.5897 14.4835 68.3508 14.3087C68.1118 14.1339 67.9357 13.9216 67.8225 13.6969C67.7219 13.4596 67.659 13.185 67.659 12.8728C67.659 12.4483 67.7471 12.0612 67.9106 11.7116C68.0867 11.362 68.313 11.0624 68.6149 10.8251C68.9167 10.5879 69.2689 10.3881 69.6714 10.2508C70.0864 10.1135 70.5266 10.051 71.0045 10.051C71.6334 10.051 72.2245 10.1384 72.7653 10.3007C73.3187 10.4755 73.8469 10.7752 74.35 11.2247L73.3564 12.748C72.8785 12.4233 72.4509 12.1861 72.0861 12.0363C71.7088 11.8864 71.3567 11.8115 71.0045 11.8115C70.7278 11.8115 70.4889 11.8615 70.3002 11.9738C70.1116 12.0862 70.0109 12.261 70.0109 12.4982C70.0109 12.7355 70.1116 12.9103 70.3254 13.0226C70.5266 13.135 70.9165 13.2599 71.4825 13.3972C72.0736 13.5595 72.5767 13.7094 72.9917 13.8717C73.4067 14.034 73.7337 14.2088 73.9853 14.3961C74.2368 14.5959 74.4255 14.8206 74.5387 15.0703C74.6519 15.32 74.7147 15.6197 74.7147 15.9693C74.7147 16.7934 74.4003 17.4426 73.784 17.9296C73.1552 18.4165 72.3251 18.6662 71.2686 18.6662Z" fill="#6E6F71"/>
<path d="M79.2173 18.6662C78.5005 18.6662 77.8087 18.5539 77.117 18.3291C76.4252 18.1044 75.8467 17.7672 75.3688 17.3427L76.2743 15.7945C76.79 16.1441 77.2805 16.4063 77.771 16.6061C78.2489 16.7934 78.7143 16.8932 79.167 16.8932C79.494 16.8932 79.7456 16.8308 79.9342 16.7184C80.1103 16.6061 80.2109 16.4313 80.2109 16.2065C80.2109 15.9818 80.0977 15.807 79.8714 15.6821C79.645 15.5448 79.2425 15.4074 78.664 15.2576C78.098 15.0953 77.6201 14.9455 77.2428 14.7956C76.8529 14.6458 76.5384 14.4835 76.2995 14.3087C76.0605 14.1339 75.8844 13.9216 75.7712 13.6969C75.6706 13.4596 75.6077 13.185 75.6077 12.8728C75.6077 12.4483 75.6958 12.0612 75.8593 11.7116C76.0354 11.362 76.2617 11.0624 76.5636 10.8251C76.8654 10.5879 77.2176 10.3881 77.6201 10.2508C78.0351 10.1135 78.4753 10.051 78.9532 10.051C79.5821 10.051 80.1732 10.1384 80.714 10.3007C81.2674 10.4755 81.7956 10.7752 82.2987 11.2247L81.3051 12.748C80.8272 12.4233 80.3996 12.1861 80.0349 12.0363C79.6575 11.8864 79.3054 11.8115 78.9532 11.8115C78.6765 11.8115 78.4376 11.8615 78.2489 11.9738C78.0603 12.0862 77.9596 12.261 77.9596 12.4982C77.9596 12.7355 78.0603 12.9103 78.2741 13.0226C78.4753 13.135 78.8652 13.2599 79.4312 13.3972C80.0223 13.5595 80.5254 13.7094 80.9404 13.8717C81.3554 14.034 81.6824 14.2088 81.934 14.3961C82.1855 14.5959 82.3742 14.8206 82.4874 15.0703C82.6006 15.32 82.6634 15.6197 82.6634 15.9693C82.6634 16.7934 82.349 17.4426 81.7328 17.9296C81.1039 18.4165 80.2738 18.6662 79.2173 18.6662Z" fill="#6E6F71"/>
<path d="M83.8708 9.25198V6.95459H86.424V9.25198H83.8708ZM83.8708 18.504V10.2009H86.424V18.504H83.8708Z" fill="#6E6F71"/>
<path d="M96.2466 18.5039H93.6935V13.8342C93.6935 13.2848 93.5929 12.8853 93.3791 12.6356C93.1778 12.3859 92.9011 12.261 92.5616 12.261C92.3855 12.261 92.1968 12.2985 92.0208 12.3734C91.8447 12.4483 91.6686 12.5482 91.4925 12.6855C91.3164 12.8229 91.1655 12.9727 91.0397 13.1475C90.9014 13.3223 90.8008 13.5221 90.7253 13.7343V18.5039H88.1722V10.2009H90.4738V11.5993C90.7756 11.0998 91.2158 10.7253 91.7818 10.4506C92.3478 10.1759 92.9892 10.051 93.7312 10.051C94.272 10.051 94.7122 10.1509 95.0392 10.3382C95.3662 10.538 95.6178 10.7877 95.8064 11.0998C95.9825 11.412 96.1083 11.7491 96.1712 12.1237C96.2341 12.4982 96.2592 12.8478 96.2592 13.1974V18.5039H96.2466Z" fill="#6E6F71"/>
<path d="M101.189 18.5414C100.636 18.5414 100.133 18.429 99.6802 18.2043C99.2274 17.9795 98.8375 17.6799 98.5105 17.3053C98.1835 16.9307 97.932 16.4812 97.7559 15.9818C97.5798 15.4699 97.4792 14.933 97.4792 14.3462C97.4792 13.7344 97.5798 13.1725 97.7685 12.6481C97.9571 12.1237 98.2212 11.6742 98.5608 11.2872C98.9004 10.9001 99.3154 10.6004 99.7934 10.3757C100.271 10.1509 100.8 10.0386 101.365 10.0386C102.007 10.0386 102.56 10.1759 103.026 10.4381C103.504 10.7128 103.881 11.0749 104.17 11.5494V10.1884H106.384V17.9296C106.384 18.5664 106.258 19.1282 106.019 19.6402C105.78 20.1521 105.453 20.5766 105.025 20.9262C104.598 21.2758 104.095 21.5505 103.491 21.7378C102.9 21.9251 102.246 22.0249 101.529 22.0249C100.623 22.0249 99.8562 21.8876 99.2148 21.6004C98.5734 21.3133 98.02 20.9012 97.5421 20.3643L98.913 18.9909C99.2148 19.3405 99.6047 19.6152 100.057 19.8274C100.51 20.0272 101.001 20.1396 101.529 20.1396C101.831 20.1396 102.133 20.1021 102.409 20.0147C102.686 19.9273 102.925 19.8025 103.139 19.6277C103.353 19.4529 103.516 19.2281 103.642 18.941C103.768 18.6663 103.831 18.3291 103.831 17.9421V17.1305C103.579 17.5925 103.214 17.9421 102.736 18.1793C102.258 18.4165 101.743 18.5414 101.189 18.5414ZM102.07 16.5312C102.46 16.5312 102.812 16.4188 103.126 16.2066C103.441 15.9943 103.68 15.7196 103.843 15.37V13.6345C103.667 13.1975 103.416 12.8354 103.063 12.5857C102.711 12.3235 102.347 12.1986 101.944 12.1986C101.667 12.1986 101.416 12.261 101.189 12.3859C100.963 12.5108 100.762 12.6731 100.598 12.8729C100.435 13.0726 100.309 13.3099 100.221 13.5845C100.133 13.8592 100.083 14.1339 100.083 14.4211C100.083 14.7332 100.133 15.0079 100.234 15.2701C100.334 15.5323 100.473 15.7571 100.661 15.9444C100.837 16.1316 101.051 16.2815 101.29 16.3814C101.516 16.4688 101.781 16.5312 102.07 16.5312Z" fill="#6E6F71"/>
<path d="M59.0941 32.7377V26.0079L56.6416 30.9023H55.2329L52.7804 26.0079V32.7377H50.1644V21.5005H53.0068L55.9372 27.3688L58.8803 21.5005H61.6975V32.7377H59.0941Z" fill="#6E6F71"/>
<path d="M65.9611 32.8999C65.5461 32.8999 65.1562 32.8375 64.8041 32.7001C64.4519 32.5628 64.1375 32.388 63.8859 32.1508C63.6344 31.9135 63.4332 31.6388 63.2822 31.3142C63.1313 30.9896 63.0558 30.64 63.0558 30.2654C63.0558 29.8534 63.1439 29.4788 63.32 29.1417C63.496 28.8046 63.7476 28.5174 64.062 28.2677C64.3764 28.0304 64.7537 27.8307 65.1939 27.6933C65.6341 27.556 66.1121 27.4936 66.6403 27.4936C66.9925 27.4936 67.332 27.5185 67.659 27.581C67.986 27.6434 68.2753 27.7308 68.5143 27.8432V27.4686C68.5143 26.5072 67.9609 26.0327 66.8415 26.0327C66.3888 26.0327 65.9486 26.1076 65.5335 26.2575C65.1185 26.4073 64.6783 26.6445 64.2255 26.9442L63.4709 25.3585C64.0243 24.9964 64.6028 24.7342 65.1939 24.5469C65.7851 24.3721 66.4265 24.2722 67.0931 24.2722C68.3634 24.2722 69.3318 24.5719 70.0235 25.1587C70.7153 25.7455 71.0548 26.6195 71.0548 27.7558V29.8908C71.0548 30.1405 71.0926 30.3153 71.1806 30.4152C71.2561 30.5151 71.407 30.5775 71.6082 30.6025V32.7376C71.3818 32.7875 71.1806 32.825 71.0045 32.8375C70.8285 32.85 70.665 32.8624 70.514 32.8624C70.0361 32.8624 69.6714 32.775 69.4324 32.5878C69.1934 32.4005 69.0299 32.1383 68.9671 31.8012L68.9167 31.4266C68.5394 31.901 68.0992 32.2631 67.5836 32.5128C67.0805 32.775 66.5271 32.8999 65.9611 32.8999ZM66.7032 31.077C66.9799 31.077 67.244 31.027 67.5081 30.9396C67.7722 30.8397 67.986 30.7149 68.1495 30.5651C68.3885 30.3778 68.5143 30.178 68.5143 29.9657V29.1667C68.2879 29.0793 68.0489 29.0168 67.7848 28.9669C67.5207 28.9169 67.2817 28.892 67.0553 28.892C66.59 28.892 66.2001 28.9918 65.8983 29.2041C65.5964 29.4164 65.4455 29.6911 65.4455 30.0282C65.4455 30.3403 65.5587 30.59 65.7976 30.7773C66.0492 30.9771 66.351 31.077 66.7032 31.077Z" fill="#6E6F71"/>
<path d="M78.2237 32.8999C77.5823 32.8999 77.0289 32.7626 76.5636 32.5004C76.0982 32.2382 75.7335 31.8636 75.4819 31.3891V36.1087H72.9288V24.4345H75.1424V25.783C75.4568 25.3085 75.8341 24.934 76.2994 24.6718C76.7648 24.4096 77.3056 24.2722 77.947 24.2722C78.513 24.2722 79.0287 24.3846 79.5066 24.6093C79.9845 24.8341 80.387 25.1337 80.7391 25.5208C81.0787 25.9079 81.3554 26.3573 81.5567 26.8817C81.7579 27.4062 81.8459 27.968 81.8459 28.5673C81.8459 29.1916 81.7579 29.766 81.5692 30.2904C81.3932 30.8148 81.1416 31.2767 80.8146 31.6638C80.5002 32.0509 80.1103 32.3505 79.6701 32.5753C79.2299 32.8 78.7394 32.8999 78.2237 32.8999ZM77.3559 30.7648C77.6326 30.7648 77.8842 30.7024 78.1105 30.5775C78.3369 30.4527 78.5382 30.2904 78.7142 30.0906C78.8903 29.8908 79.0161 29.6536 79.1041 29.3914C79.1922 29.1167 79.2425 28.842 79.2425 28.5424C79.2425 28.2302 79.1922 27.9555 79.0916 27.6933C78.9909 27.4311 78.8526 27.2064 78.6765 27.0191C78.5004 26.8318 78.2866 26.682 78.0351 26.5821C77.7835 26.4822 77.5194 26.4198 77.2302 26.4198C76.878 26.4198 76.5384 26.5197 76.224 26.7319C75.897 26.9317 75.658 27.2189 75.4819 27.5685V29.279C75.658 29.7035 75.9096 30.0531 76.2491 30.3403C76.5887 30.615 76.966 30.7648 77.3559 30.7648Z" fill="#6E6F71"/>
<path d="M86.424 32.9001C85.7071 32.9001 85.0153 32.7877 84.3236 32.563C83.6319 32.3383 83.0533 32.0011 82.5754 31.5766L83.4809 30.0284C83.9966 30.378 84.4871 30.6402 84.9776 30.84C85.4555 31.0272 85.9209 31.1271 86.3737 31.1271C86.7007 31.1271 86.9522 31.0647 87.1409 30.9523C87.3169 30.84 87.4176 30.6652 87.4176 30.4404C87.4176 30.2157 87.3044 30.0409 87.078 29.916C86.8516 29.7787 86.4491 29.6413 85.8706 29.4915C85.3046 29.3292 84.8267 29.1793 84.4494 29.0295C84.0595 28.8797 83.7451 28.7174 83.5061 28.5426C83.2671 28.3678 83.0911 28.1555 82.9779 27.9308C82.8773 27.6935 82.8144 27.4188 82.8144 27.1067C82.8144 26.6822 82.9024 26.2951 83.0659 25.9455C83.242 25.5959 83.4684 25.2963 83.7702 25.059C84.0721 24.8218 84.4242 24.622 84.8267 24.4847C85.2417 24.3473 85.6819 24.2849 86.1599 24.2849C86.7887 24.2849 87.3798 24.3723 87.9206 24.5346C88.474 24.7094 89.0023 25.0091 89.5053 25.4586L88.5118 26.9818C88.0338 26.6572 87.6062 26.42 87.2415 26.2702C86.8642 26.1203 86.512 26.0454 86.1599 26.0454C85.8832 26.0454 85.6442 26.0954 85.4555 26.2077C85.2669 26.3201 85.1663 26.4949 85.1663 26.7321C85.1663 26.9694 85.2669 27.1442 85.4807 27.2565C85.6819 27.3689 86.0718 27.4938 86.6378 27.6311C87.2289 27.7934 87.732 27.9433 88.147 28.1056C88.5621 28.2679 88.8891 28.4427 89.1406 28.63C89.3922 28.8297 89.5808 29.0545 89.694 29.3042C89.8072 29.5539 89.8701 29.8536 89.8701 30.2032C89.8701 31.0272 89.5557 31.6765 88.9394 32.1635C88.3105 32.6504 87.4804 32.9001 86.424 32.9001Z" fill="#6E6F71"/>
</g>
<defs>
<clipPath id="clip0">
<rect width="100" height="40.404" fill="white" transform="translate(7)"/>
</clipPath>
</defs>
</svg>
