<svg width="136" height="137" viewBox="0 0 136 137" fill="none" xmlns="http://www.w3.org/2000/svg">
<path d="M67.9335 136.112C105.213 136.112 135.434 105.761 135.434 68.3212C135.434 30.8813 105.213 0.530273 67.9335 0.530273C30.6543 0.530273 0.433502 30.8813 0.433502 68.3212C0.433502 105.761 30.6543 136.112 67.9335 136.112Z" fill="white"/>
<path d="M122.104 97.1902C120.938 99.6165 119.631 101.92 118.196 104.099C118.732 103.744 119.149 103.335 119.451 102.877C120.759 100.706 122.454 97.78 123.614 95.5258C127.991 85.394 129.578 79.6104 129.76 67.3259C129.821 68.6819 129.277 69.789 128.067 70.5911C128.107 79.6 126.193 88.6836 122.104 97.1902Z" fill="url(#paint0_radial)"/>
<path d="M7.21192 80.2684C7.77242 82.694 8.59834 85.9109 9.31902 88.2931C10.6561 92.004 16.0335 97.2749 24.237 102.942C23.4211 95.6468 24.5632 86.7919 27.7886 77.1456C14.3959 67.8928 6.68502 59.4389 7.65983 54.6606C6.70784 59.7205 4.9363 69.1384 7.21192 80.2684Z" fill="url(#paint1_radial)"/>
<path d="M125.124 51.8143C115.428 67.7904 35.982 22.8254 42.7357 11.8806C39.969 13.1072 36.9828 14.6819 33.8307 16.7567C29.1544 20.1234 28.1813 20.8242 24.026 24.8218C19.7387 29.5218 19.5721 29.7053 17.5138 32.6056C13.9742 38.0779 13.8363 38.2915 12.249 41.5722C11.2367 43.9162 9.94028 47.0678 9.08788 49.4755C7.01095 56.2881 23.8962 71.213 50.2489 85.1455C79.9092 100.827 110.331 109.313 118.196 104.099C119.631 101.921 120.938 99.6169 122.104 97.1905C129.086 82.665 129.726 66.4596 125.124 51.8143Z" fill="url(#paint2_radial)"/>
<path d="M127.685 65.6409C128.945 64.8057 129.695 63.6245 129.521 62.1678C129.293 60.565 129.029 58.421 128.732 56.8298C127.063 49.6074 125.838 45.3935 121.826 37.9834L119.801 34.6375C121.249 36.8219 121.131 38.5417 119.65 39.5234C124.162 47.5666 126.78 56.4267 127.93 65.6409" fill="url(#paint3_radial)"/>
<path d="M17.1278 46.3966C14.9202 46.3966 12.2094 46.3682 10.7869 47.3108C9.90972 47.8922 9.34971 48.6199 9.08847 49.4755C9.97105 47.0787 11.2071 43.903 12.2491 41.5722C15.3921 35.6568 15.4524 35.5437 17.5139 32.6057C21.4813 27.4347 21.5564 27.3357 24.0263 24.8219C24.7602 24.135 25.3921 23.5438 25.9585 23.0193C25.9585 23.019 17.1278 35.9191 17.1278 46.3966Z" fill="url(#paint4_radial)"/>
<path d="M83.7987 113.172C78.4093 108.537 70.4965 103.282 60.8912 98.2029C38.8432 86.5462 16.23 80.2373 10.3827 84.1139C8.97466 85.0469 8.66705 86.4851 9.31905 88.2933C8.6153 85.9066 7.75578 82.6979 7.21195 80.2691C6.2759 74.1588 5.11025 66.5553 7.65987 54.6613C7.86101 53.6683 8.4404 52.8336 9.42011 52.184C17.1725 47.0458 47.1531 55.4088 76.3841 70.8633C89.117 77.5956 99.6093 84.563 106.754 90.7093C100.432 99.8237 92.4621 107.504 83.7987 113.172Z" fill="url(#paint5_radial)"/>
<path d="M90.2253 126.327C93.0879 124.43 91.402 120.444 86.3479 115.502C95.4177 110.205 103.679 102.791 110.135 93.7977C116.085 99.6178 118.513 104.437 116.323 107.205C114.471 109.364 111.899 112.157 109.888 114.166C105.05 118.31 104.958 118.39 102.033 120.343C98.3321 122.795 94.3679 124.799 90.2253 126.327ZM59.2998 128.908C68.247 130.573 77.2592 130.131 85.6893 127.791C91.0892 124.213 78.9608 112.584 58.6007 101.819C47.6609 96.0358 36.5713 91.6788 27.8145 89.4387C28.5273 97.8386 30.5309 105.58 33.786 112.001C37.6469 112.988 42.5357 114.909 47.3577 117.459C56.3336 122.204 61.6804 127.33 59.2998 128.908Z" fill="url(#paint6_radial)"/>
<path d="M54.6955 17.0995C60.3861 12.2392 66.4572 9.15337 72.4336 8.06104C79.6186 9.89834 88.7162 13.4732 97.6896 18.2177C108.808 24.096 116.934 30.2883 119.818 34.6377L121.843 37.9837C124.938 43.9772 126.947 48.2367 128.75 56.83C128.995 58.4301 129.363 60.5588 129.538 62.168C128.767 55.7221 114.681 43.8821 93.6614 32.7694C79.8158 25.4489 65.7802 19.9341 54.6955 17.0995Z" fill="url(#paint7_linear)"/>
<path d="M80.8579 67.387C82.0782 64.9981 83.2745 62.5848 84.4404 60.159C88.53 51.6519 91.8037 43.9048 94.1858 37.2776C115.464 48.7922 129.473 60.8652 129.765 67.3163C129.551 78.8934 128.23 84.9552 123.619 95.5159C122.43 97.7543 120.794 100.715 119.457 102.867C123.504 96.7393 107.258 81.6733 80.8579 67.387Z" fill="url(#paint8_linear)"/>
<path d="M24.9554 26.427C22.579 30.77 21.1575 35.4559 20.7336 40.3547C19.527 54.2835 26.6283 67.6347 38.8262 74.3685C49.2955 80.1482 61.447 79.9883 71.4161 75.0236L74.3437 80.3613C73.5548 81.6751 73.4623 83.3617 74.2517 84.8023L89.1692 112.004C90.3473 114.155 93.0392 114.937 95.1799 113.753C96.5249 113.009 97.3314 111.669 97.4548 110.24C97.5301 109.393 97.3616 108.515 96.9232 107.715L82.0048 80.5126C81.2147 79.0726 79.7458 78.2498 78.2199 78.2173L75.2493 72.8019C79.8187 69.7538 83.741 65.5909 86.5607 60.4387C88.9386 56.0962 90.3586 51.4103 90.7822 46.512C91.9893 32.5824 84.8875 19.232 72.6896 12.4982C55.706 3.12073 34.2919 9.3695 24.9554 26.427Z" fill="url(#paint9_radial)"/>
<path d="M76.7029 20.857C85.6045 29.187 88.7769 42.0299 84.785 53.5755C83.3819 57.6313 81.1791 61.2972 78.2385 64.4676C66.6892 76.9163 47.209 77.6071 34.8146 66.0078C25.9128 57.6785 22.7404 44.8359 26.7331 33.29C28.1362 29.2321 30.3384 25.5678 33.2798 22.3972C44.8286 9.94894 64.3076 9.2589 76.7029 20.857Z" fill="url(#paint10_radial)"/>
<path d="M61.1185 33.0938C67.7165 32.1492 73.8281 36.7556 74.7685 43.3822C75.7092 50.0092 71.1229 56.1468 64.5252 57.0913C57.9265 58.0364 51.8146 53.4303 50.8742 46.8036C49.9335 40.1767 54.5198 34.0388 61.1185 33.0938Z" fill="#5598E5"/>
<path d="M53.0304 56.9466C50.9834 55.7378 47.0093 53.3829 44.7781 49.7927C41.7381 44.993 39.1242 37.3144 41.2932 31.1127C42.0133 29.0539 40.9362 26.7981 38.8848 26.074C36.8334 25.3507 34.5872 26.4335 33.8678 28.4935C30.7152 37.5029 34.0311 48.4496 38.9621 55.3313C40.9223 59.7117 42.1605 65.7131 43.3534 71.6616C53.6873 76.2314 65.9751 74.7792 74.9996 67.4901C69.8457 61.464 60.4373 61.3216 53.0304 56.9466Z" fill="#5598E5"/>
<defs>
<radialGradient id="paint0_radial" cx="0" cy="0" r="1" gradientUnits="userSpaceOnUse" gradientTransform="translate(75.047 50.24) scale(109.033 109.503)">
<stop stop-color="#D18E38"/>
<stop offset="1" stop-color="#BD4927"/>
</radialGradient>
<radialGradient id="paint1_radial" cx="0" cy="0" r="1" gradientUnits="userSpaceOnUse" gradientTransform="translate(77.7777 50.2246) scale(107.387 107.85)">
<stop stop-color="#D53924"/>
<stop offset="1" stop-color="#C30011"/>
</radialGradient>
<radialGradient id="paint2_radial" cx="0" cy="0" r="1" gradientUnits="userSpaceOnUse" gradientTransform="translate(73.3066 53.0604) scale(112.373 112.857)">
<stop stop-color="#6A9DB6"/>
<stop offset="1" stop-color="#2E55AF"/>
</radialGradient>
<radialGradient id="paint3_radial" cx="0" cy="0" r="1" gradientUnits="userSpaceOnUse" gradientTransform="translate(130.485 48.6613) scale(54.6768 54.9124)">
<stop stop-color="#9CAD4C"/>
<stop offset="1" stop-color="#73633D"/>
</radialGradient>
<radialGradient id="paint4_radial" cx="0" cy="0" r="1" gradientUnits="userSpaceOnUse" gradientTransform="translate(71.9789 49.0576) scale(112.21 112.694)">
<stop stop-color="#71BEE6"/>
<stop offset="1" stop-color="#3871E4"/>
</radialGradient>
<radialGradient id="paint5_radial" cx="0" cy="0" r="1" gradientUnits="userSpaceOnUse" gradientTransform="translate(79.0019 49.895) scale(104.2 104.649)">
<stop stop-color="#FF3924"/>
<stop offset="1" stop-color="#FF0011"/>
</radialGradient>
<radialGradient id="paint6_radial" cx="0" cy="0" r="1" gradientUnits="userSpaceOnUse" gradientTransform="translate(71.4849 75.5553) scale(71.9582 72.2683)">
<stop stop-color="#FDF240"/>
<stop offset="0.2407" stop-color="#FDDB3C"/>
<stop offset="0.7444" stop-color="#FCAF33"/>
<stop offset="1" stop-color="#FC9E30"/>
</radialGradient>
<linearGradient id="paint7_linear" x1="77.3687" y1="41.6438" x2="172.11" y2="15.4241" gradientUnits="userSpaceOnUse">
<stop stop-color="#B2D25A"/>
<stop offset="0.2455" stop-color="#ACC457"/>
<stop offset="0.7116" stop-color="#9D9E51"/>
<stop offset="1" stop-color="#93834C"/>
</linearGradient>
<linearGradient id="paint8_linear" x1="75.3366" y1="48.7151" x2="164.5" y2="107.323" gradientUnits="userSpaceOnUse">
<stop stop-color="#F9AB3E"/>
<stop offset="1" stop-color="#F7612D"/>
</linearGradient>
<radialGradient id="paint9_radial" cx="0" cy="0" r="1" gradientUnits="userSpaceOnUse" gradientTransform="translate(87.6686 92.9933) scale(165.038 165.749)">
<stop stop-color="#563924"/>
<stop offset="1" stop-color="#110011"/>
</radialGradient>
<radialGradient id="paint10_radial" cx="0" cy="0" r="1" gradientUnits="userSpaceOnUse" gradientTransform="translate(72.9858 51.2614) rotate(-64.6656) scale(160.66 160.223)">
<stop stop-color="#EDF7FB"/>
<stop offset="0.1904" stop-color="#EDF2FB"/>
<stop offset="0.4306" stop-color="#ECE2FB"/>
<stop offset="0.6976" stop-color="#EAC8FB"/>
<stop offset="0.9822" stop-color="#E7A4FB"/>
<stop offset="1" stop-color="#E7A2FB"/>
</radialGradient>
</defs>
</svg>
