<svg width="199" height="196" viewBox="0 0 199 196" fill="none" xmlns="http://www.w3.org/2000/svg">
<path d="M100.118 126.78C134.977 126.78 163.236 98.3995 163.236 63.3901C163.236 28.3807 134.977 0 100.118 0C65.2589 0 37 28.3807 37 63.3901C37 98.3995 65.2589 126.78 100.118 126.78Z" fill="white"/>
<path d="M150.772 90.3849C149.681 92.6538 148.459 94.8081 147.118 96.845C147.619 96.5137 148.008 96.1313 148.291 95.7021C149.514 93.6729 151.099 90.9364 152.184 88.8286C156.277 79.3546 157.76 73.9464 157.931 62.4594C157.988 63.7273 157.479 64.7626 156.348 65.5126C156.385 73.9367 154.596 82.4306 150.772 90.3849Z" fill="url(#paint0_radial)"/>
<path d="M43.3384 74.5616C43.8625 76.8298 44.6348 79.8378 45.3087 82.0654C46.559 85.5353 51.5873 90.4641 59.2582 95.7634C58.4953 88.9417 59.5633 80.6616 62.5793 71.6416C50.056 62.9894 42.8457 55.0844 43.7572 50.6163C42.867 55.3477 41.2105 64.1541 43.3384 74.5616Z" fill="url(#paint1_radial)"/>
<path d="M153.596 47.9548C144.529 62.8937 70.2408 20.8477 76.5561 10.6135C73.969 11.7604 71.1766 13.2329 68.2292 15.173C63.8564 18.3211 62.9465 18.9765 59.0609 22.7146C55.052 27.1094 54.8962 27.281 52.9715 29.9931C49.6617 35.1101 49.5328 35.3098 48.0485 38.3775C47.1019 40.5694 45.8897 43.5164 45.0926 45.7677C43.1505 52.1381 58.9396 66.0941 83.5815 79.1222C111.316 93.7856 139.763 101.721 147.118 96.8452C148.459 94.8084 149.681 92.6541 150.772 90.3852C157.301 76.8027 157.899 61.6493 153.596 47.9548Z" fill="url(#paint2_radial)"/>
<path d="M155.99 60.8838C157.169 60.1029 157.87 58.9983 157.708 57.6362C157.494 56.1374 157.248 54.1326 156.969 52.6447C155.409 45.8912 154.264 41.9509 150.512 35.0218L148.618 31.8931C149.972 33.9357 149.862 35.5438 148.477 36.4618C152.696 43.9829 155.145 52.2678 156.22 60.8838" fill="url(#paint3_radial)"/>
<path d="M52.6106 42.8888C50.5462 42.8888 48.0114 42.8623 46.6813 43.7436C45.8611 44.2873 45.3374 44.9678 45.0931 45.7678C45.9184 43.5266 47.0742 40.5571 48.0486 38.3776C50.9876 32.8462 51.044 32.7404 52.9716 29.9932C56.6815 25.1579 56.7517 25.0653 59.0612 22.7147C59.7475 22.0724 60.3384 21.5196 60.868 21.0291C60.868 21.0289 52.6106 33.0915 52.6106 42.8888Z" fill="url(#paint4_radial)"/>
<path d="M114.953 105.329C109.914 100.995 102.515 96.081 93.5329 91.3319C72.9163 80.4319 51.7711 74.5326 46.3033 78.1575C44.9867 79.0299 44.6991 80.3747 45.3088 82.0656C44.6507 79.8339 43.847 76.8334 43.3385 74.5623C42.4632 68.8486 41.3732 61.7388 43.7573 50.6169C43.9454 49.6883 44.4872 48.9079 45.4033 48.3004C52.6524 43.4958 80.6867 51.3158 108.02 65.7671C119.926 72.0624 129.738 78.5775 136.418 84.3247C130.507 92.8474 123.054 100.029 114.953 105.329Z" fill="url(#paint5_radial)"/>
<path d="M120.963 117.631C123.64 115.857 122.063 112.129 117.337 107.508C125.818 102.555 133.543 95.6222 139.58 87.2126C145.144 92.6549 147.414 97.1614 145.366 99.7493C143.634 101.769 141.23 104.38 139.349 106.259C134.825 110.134 134.739 110.209 132.004 112.034C128.543 114.327 124.836 116.201 120.963 117.631ZM92.0449 120.044C100.411 121.6 108.838 121.187 116.721 118.999C121.771 115.653 110.43 104.779 91.3911 94.7136C81.1616 89.3054 70.7919 85.2313 62.6035 83.1366C63.2701 90.9912 65.1436 98.2301 68.1874 104.234C71.7977 105.157 76.3691 106.954 80.8781 109.337C89.2713 113.775 94.2709 118.568 92.0449 120.044Z" fill="url(#paint6_radial)"/>
<path d="M87.7394 15.4936C93.0607 10.9488 98.7376 8.06329 104.326 7.04187C111.045 8.7599 119.552 12.1027 127.942 16.5392C138.339 22.0358 145.937 27.8262 148.634 31.8932L150.528 35.022C153.422 40.6264 155.301 44.6094 156.986 52.6448C157.216 54.141 157.56 56.1316 157.724 57.6363C157.003 51.6089 143.831 40.5375 124.176 30.1462C111.229 23.301 98.1046 18.1441 87.7394 15.4936Z" fill="url(#paint7_linear)"/>
<path d="M112.203 62.5163C113.345 60.2825 114.463 58.0259 115.553 55.7575C119.378 47.8027 122.439 40.5585 124.666 34.3616C144.563 45.1287 157.663 56.418 157.935 62.4502C157.735 73.2758 156.5 78.9441 152.189 88.8192C151.077 90.9122 149.547 93.6807 148.296 95.6927C152.081 89.9632 136.89 75.8752 112.203 62.5163Z" fill="url(#paint8_linear)"/>
<path d="M59.93 24.2157C57.7079 28.2768 56.3786 32.6585 55.9823 37.2392C54.854 50.2638 61.4943 62.7482 72.9003 69.0449C82.69 74.4494 94.0526 74.2999 103.375 69.6575L106.112 74.6487C105.374 75.8772 105.288 77.4543 106.026 78.8014L119.975 104.237C121.077 106.248 123.594 106.98 125.596 105.872C126.853 105.177 127.608 103.924 127.723 102.587C127.793 101.796 127.636 100.975 127.226 100.227L113.276 74.7901C112.537 73.4437 111.164 72.6743 109.737 72.6439L106.959 67.5801C111.232 64.7298 114.899 60.8372 117.536 56.0194C119.76 51.9588 121.087 47.5771 121.483 42.9968C122.612 29.9715 115.971 17.4878 104.565 11.1911C88.6844 2.42242 68.6604 8.26553 59.93 24.2157Z" fill="url(#paint9_radial)"/>
<path d="M108.318 19.0072C116.642 26.7964 119.608 38.8056 115.876 49.6017C114.564 53.3942 112.504 56.8222 109.754 59.7867C98.9545 71.4273 80.7389 72.0732 69.1492 61.2269C60.8252 53.4384 57.8588 41.4294 61.5923 30.6331C62.9043 26.8386 64.9636 23.4122 67.714 20.4475C78.5131 8.8073 96.7275 8.16206 108.318 19.0072Z" fill="url(#paint10_radial)"/>
<path d="M93.7455 30.4497C99.9152 29.5665 105.63 33.8738 106.509 40.0703C107.389 46.267 103.1 52.0062 96.931 52.8894C90.7607 53.7731 85.0456 49.466 84.1662 43.2696C83.2866 37.0728 87.5752 31.3334 93.7455 30.4497Z" fill="#5598E5"/>
<path d="M86.1824 52.7542C84.2683 51.6238 80.5522 49.4218 78.4659 46.0648C75.6232 41.5766 73.1791 34.3965 75.2072 28.5974C75.8806 26.6723 74.8734 24.5628 72.9552 23.8858C71.0369 23.2095 68.9366 24.2219 68.2638 26.1482C65.3159 34.5727 68.4166 44.8088 73.0274 51.2437C74.8603 55.3398 76.0182 60.9516 77.1337 66.5139C86.7967 70.7871 98.2868 69.4291 106.725 62.6132C101.906 56.9783 93.1085 56.8452 86.1824 52.7542Z" fill="#5598E5"/>
<path d="M110.505 162.973H109.402C109.188 162.973 108.989 162.904 108.805 162.766C108.621 162.628 108.544 162.39 108.575 162.053C108.728 160.519 108.185 159.254 106.944 158.256C105.703 157.26 104.072 156.761 102.051 156.761C99.6613 156.761 97.6317 157.229 95.9625 158.164C94.2925 159.1 93.2587 160.473 92.861 162.283C92.7691 162.743 92.7231 163.142 92.7231 163.479C92.7231 164.399 93.006 165.174 93.5732 165.803C94.1396 166.432 94.9588 166.999 96.0314 167.505C97.1033 168.011 98.6655 168.618 100.718 169.323C103.659 170.335 105.787 171.386 107.105 172.475C108.422 173.564 109.081 174.999 109.081 176.777C109.081 177.299 109.004 177.943 108.851 178.71C108.269 181.471 106.852 183.564 104.601 184.991C102.349 186.417 99.4315 187.131 95.8476 187.131C93.6112 187.131 91.7194 186.801 90.173 186.141C88.6258 185.482 87.4621 184.585 86.681 183.449C85.8998 182.315 85.5093 181.057 85.5093 179.676C85.5093 179.308 85.5243 179.032 85.5552 178.848C85.5854 178.572 85.6852 178.35 85.8539 178.181C86.0219 178.012 86.2444 177.928 86.5201 177.928H87.6229C88.1743 177.928 88.45 178.235 88.45 178.848C88.3882 179.768 88.6029 180.65 89.0932 181.494C89.5828 182.338 90.3948 183.028 91.5285 183.564C92.6614 184.102 94.1016 184.37 95.8476 184.37C98.7574 184.37 101.086 183.833 102.832 182.759C104.578 181.686 105.65 180.213 106.048 178.342C106.14 177.974 106.186 177.621 106.186 177.283C106.186 176.363 105.871 175.589 105.244 174.96C104.616 174.331 103.735 173.771 102.602 173.28C101.468 172.79 99.7682 172.146 97.5017 171.348C94.8059 170.427 92.861 169.423 91.6663 168.334C90.4717 167.245 89.8743 165.826 89.8743 164.077C89.8743 163.28 89.9504 162.559 90.1041 161.915C90.6246 159.522 91.919 157.605 93.9867 156.163C96.0544 154.721 98.7423 154 102.051 154C104.133 154 105.887 154.345 107.312 155.035C108.736 155.726 109.8 156.608 110.505 157.681C111.209 158.755 111.562 159.875 111.562 161.04C111.562 161.286 111.531 161.623 111.47 162.053C111.347 162.667 111.026 162.973 110.505 162.973Z" fill="white"/>
<path d="M143.357 163.433C143.419 163.28 143.533 163.127 143.702 162.973C143.87 162.82 144.093 162.743 144.368 162.743H145.471C145.992 162.743 146.252 162.943 146.252 163.341C146.252 163.464 146.19 163.679 146.068 163.985L135.087 185.52C134.872 185.95 134.635 186.249 134.375 186.417C134.114 186.586 133.784 186.67 133.387 186.67H132.514C131.717 186.67 131.273 186.287 131.181 185.52L129.16 167.39L119.648 185.52C119.25 186.287 118.653 186.67 117.856 186.67H116.937C116.539 186.67 116.248 186.578 116.064 186.394C115.881 186.21 115.758 185.919 115.697 185.52L113.721 163.801C113.69 163.495 113.767 163.242 113.951 163.042C114.135 162.843 114.41 162.743 114.778 162.743H115.559C116.11 162.743 116.416 162.973 116.478 163.433L118.178 182.575L128.103 163.663C128.409 163.05 128.853 162.743 129.435 162.743H130.538C131.15 162.743 131.487 163.05 131.549 163.663L133.617 182.575L143.357 163.433Z" fill="white"/>
<path d="M147.263 186.394C147.048 186.578 146.787 186.67 146.482 186.67H145.7C145.394 186.67 145.164 186.578 145.011 186.394C144.858 186.21 144.812 185.965 144.873 185.658L149.514 163.755C149.575 163.449 149.721 163.203 149.951 163.019C150.18 162.835 150.448 162.743 150.755 162.743H151.536C151.842 162.743 152.064 162.835 152.202 163.019C152.34 163.203 152.378 163.449 152.317 163.755L147.676 185.658C147.614 185.965 147.477 186.21 147.263 186.394ZM153.879 157.543C153.634 157.727 153.358 157.819 153.052 157.819H151.306C151 157.819 150.77 157.727 150.617 157.543C150.463 157.359 150.417 157.114 150.479 156.807L150.893 155.058C150.954 154.752 151.091 154.499 151.306 154.299C151.52 154.1 151.781 154 152.087 154H153.833C154.139 154 154.377 154.1 154.545 154.299C154.713 154.499 154.767 154.752 154.706 155.058L154.293 156.807C154.262 157.114 154.124 157.359 153.879 157.543Z" fill="white"/>
<path d="M153.833 194.401C153.771 194.707 153.634 194.953 153.42 195.137C153.205 195.321 152.944 195.413 152.639 195.413H151.857C151.552 195.413 151.322 195.321 151.168 195.137C151.015 194.953 150.969 194.707 151.03 194.401L157.555 163.755C157.616 163.449 157.754 163.203 157.969 163.019C158.183 162.835 158.443 162.743 158.75 162.743H159.531C159.837 162.743 160.066 162.835 160.22 163.019C160.373 163.203 160.419 163.449 160.358 163.755L159.898 165.918C161.001 164.721 162.157 163.817 163.367 163.203C164.577 162.59 166.116 162.283 167.985 162.283C170.803 162.283 172.848 163.088 174.119 164.698C175.39 166.309 176.026 168.372 176.026 170.887C176.026 171.839 175.964 172.682 175.842 173.418C175.75 174.032 175.567 174.891 175.291 175.995C174.464 179.186 173.093 181.839 171.179 183.956C169.264 186.072 166.622 187.131 163.253 187.131C159.791 187.131 157.432 185.919 156.177 183.495L153.833 194.401ZM157.417 178.48C157.417 180.198 157.892 181.625 158.842 182.759C159.791 183.894 161.261 184.462 163.253 184.462C165.58 184.462 167.51 183.664 169.042 182.069C170.573 180.474 171.707 178.45 172.442 175.995C172.656 175.259 172.84 174.4 172.994 173.418C173.147 172.406 173.223 171.532 173.223 170.795C173.223 166.9 171.477 164.951 167.985 164.951C166.331 164.951 164.83 165.35 163.482 166.148C162.134 166.946 161.031 167.965 160.174 169.208C159.316 170.45 158.719 171.731 158.382 173.05C158.167 173.909 157.907 175.106 157.601 176.639C157.478 177.437 157.417 178.051 157.417 178.48Z" fill="white"/>
<path d="M196.886 164.445C198.295 165.888 199 167.927 199 170.565C199 171.823 198.877 173.02 198.632 174.154L198.495 174.845C198.433 175.152 198.28 175.397 198.035 175.581C197.79 175.765 197.514 175.857 197.208 175.857H180.851C180.667 176.808 180.575 177.744 180.575 178.664C180.575 182.529 182.382 184.462 185.997 184.462C187.436 184.462 188.662 184.286 189.673 183.932C190.683 183.58 191.434 183.204 191.924 182.805C192.414 182.407 192.889 181.962 193.348 181.471C193.685 181.103 193.93 180.873 194.084 180.78C194.236 180.688 194.497 180.642 194.865 180.642H195.6C195.876 180.642 196.097 180.727 196.266 180.896C196.434 181.064 196.473 181.287 196.381 181.563C196.197 182.269 195.684 183.051 194.842 183.909C193.999 184.769 192.827 185.52 191.327 186.164C189.825 186.808 188.049 187.131 185.997 187.131C183.516 187.131 181.517 186.341 180 184.761C178.484 183.181 177.726 181.087 177.726 178.48C177.726 177.866 177.772 177.222 177.864 176.547C178.017 175.627 178.277 174.4 178.645 172.866C179.441 169.707 180.942 167.153 183.148 165.205C185.353 163.257 187.881 162.283 190.729 162.283C193.424 162.283 195.477 163.004 196.886 164.445ZM196.335 170.565C196.335 168.848 195.868 167.482 194.934 166.47C193.999 165.458 192.597 164.951 190.729 164.951C189.228 164.951 187.827 165.32 186.525 166.056C185.223 166.792 184.128 167.797 183.24 169.07C182.351 170.343 181.739 171.747 181.402 173.28H196.013C196.227 172.391 196.335 171.486 196.335 170.565Z" fill="white"/>
<path d="M23.8011 155.703C24.0768 155.334 24.3446 155.035 24.6052 154.805C24.8651 154.575 25.2556 154.46 25.7768 154.46H28.9013C29.238 154.46 29.5288 154.583 29.7743 154.828C30.0191 155.074 30.1419 155.365 30.1419 155.703V185.428C30.1419 185.766 30.0191 186.057 29.7743 186.302C29.5288 186.548 29.238 186.67 28.9013 186.67H25.1795C24.8423 186.67 24.5515 186.548 24.3065 186.302C24.061 186.057 23.9389 185.766 23.9389 185.428V167.436L17.9657 177.79C17.4753 178.557 16.9089 178.94 16.2656 178.94H13.8763C13.233 178.94 12.6659 178.557 12.1762 177.79L6.20299 167.436V185.428C6.20299 185.766 6.08021 186.057 5.8354 186.302C5.58985 186.548 5.2991 186.67 4.96239 186.67H1.2406C0.903155 186.67 0.612395 186.548 0.367584 186.302C0.122038 186.057 0 185.766 0 185.428V155.703C0 155.365 0.122038 155.074 0.367584 154.828C0.612395 154.583 0.903155 154.46 1.2406 154.46H4.36506C4.88556 154.46 5.27612 154.575 5.53674 154.805C5.79662 155.035 6.06514 155.334 6.34083 155.703L15.071 170.887L23.8011 155.703Z" fill="white"/>
<path d="M51.9442 164.767C53.7972 166.424 54.7241 168.802 54.7241 171.9V185.428C54.7241 185.766 54.6013 186.057 54.3565 186.302C54.111 186.548 53.8202 186.67 53.4835 186.67H49.9914C49.654 186.67 49.3632 186.548 49.1184 186.302C48.8729 186.057 48.7508 185.766 48.7508 185.428V183.909C48.0458 184.892 47.0737 185.674 45.8331 186.256C44.5925 186.839 43.0992 187.131 41.3532 187.131C38.7801 187.131 36.7426 186.463 35.2421 185.129C33.7409 183.794 32.9907 182.069 32.9907 179.952C32.9907 177.897 33.7179 176.264 35.1732 175.052C36.6277 173.84 38.6573 173.004 41.2613 172.544L48.7508 171.255C48.7508 170.09 48.3603 169.224 47.5792 168.656C46.798 168.088 45.7484 167.804 44.4317 167.804C43.7267 167.804 43.1523 167.904 42.7087 168.103C42.2643 168.303 41.8278 168.602 41.3992 169.001C40.9397 169.431 40.4342 169.645 39.8829 169.645H35.6097C35.3031 169.645 35.0504 169.546 34.8516 169.346C34.652 169.147 34.568 168.909 34.5988 168.633C34.7826 167.682 35.2651 166.716 36.0462 165.734C36.8273 164.752 37.9301 163.932 39.3545 163.272C40.7789 162.613 42.471 162.283 44.4317 162.283C47.5863 162.283 50.0905 163.111 51.9442 164.767ZM48.7508 175.995L42.5019 177.099C41.2764 177.314 40.3804 177.628 39.8139 178.043C39.2468 178.457 38.9639 179.017 38.9639 179.722C38.9639 180.336 39.2776 180.803 39.9058 181.126C40.5333 181.448 41.3223 181.609 42.2722 181.609C43.6197 181.609 44.7835 181.364 45.7642 180.873C46.7442 180.382 47.4873 179.745 47.9927 178.963C48.4981 178.181 48.7508 177.345 48.7508 176.455V175.995Z" fill="white"/>
<path d="M64.511 194.171C64.511 194.508 64.3882 194.799 64.1434 195.045C63.8979 195.29 63.6071 195.413 63.2704 195.413H59.7784C59.4409 195.413 59.1502 195.29 58.9054 195.045C58.6598 194.799 58.5378 194.508 58.5378 194.171V163.985C58.5378 163.648 58.6598 163.357 58.9054 163.111C59.1502 162.866 59.4409 162.743 59.7784 162.743H63.2704C63.6071 162.743 63.8979 162.866 64.1434 163.111C64.3882 163.357 64.511 163.648 64.511 163.985V165.043C65.1543 164.307 66.0424 163.663 67.176 163.111C68.3089 162.559 69.7333 162.283 71.4492 162.283C73.44 162.283 75.1939 162.782 76.7102 163.778C78.2265 164.775 79.4133 166.095 80.2712 167.735C81.1284 169.377 81.6037 171.163 81.6956 173.096C81.7257 173.403 81.7415 173.94 81.7415 174.707C81.7415 175.474 81.7257 176.011 81.6956 176.317C81.6037 178.25 81.1284 180.037 80.2712 181.678C79.4133 183.319 78.2265 184.639 76.7102 185.635C75.1939 186.632 73.44 187.131 71.4492 187.131C69.7642 187.131 68.3549 186.854 67.222 186.302C66.0883 185.75 65.1844 185.106 64.511 184.37V194.171ZM74.252 169.507C73.2103 168.372 71.8168 167.804 70.0707 167.804C68.5386 167.804 67.2679 168.257 66.257 169.162C65.2462 170.067 64.6639 171.332 64.511 172.958C64.4801 173.265 64.4651 173.848 64.4651 174.707C64.4651 175.566 64.4801 176.149 64.511 176.455C64.6639 178.02 65.2534 179.27 66.28 180.205C67.3059 181.141 68.5695 181.609 70.0707 181.609C71.633 181.609 72.9195 181.149 73.9304 180.228C74.9412 179.308 75.5385 177.897 75.7223 175.995C75.7834 175.382 75.8142 174.952 75.8142 174.707C75.8142 172.376 75.293 170.642 74.252 169.507Z" fill="white"/>
<defs>
<radialGradient id="paint0_radial" cx="0" cy="0" r="1" gradientUnits="userSpaceOnUse" gradientTransform="translate(106.77 46.4827) scale(101.955 102.394)">
<stop stop-color="#D18E38"/>
<stop offset="1" stop-color="#BD4927"/>
</radialGradient>
<radialGradient id="paint1_radial" cx="0" cy="0" r="1" gradientUnits="userSpaceOnUse" gradientTransform="translate(109.323 46.4682) scale(100.416 100.848)">
<stop stop-color="#D53924"/>
<stop offset="1" stop-color="#C30011"/>
</radialGradient>
<radialGradient id="paint2_radial" cx="0" cy="0" r="1" gradientUnits="userSpaceOnUse" gradientTransform="translate(105.142 49.1199) scale(105.077 105.53)">
<stop stop-color="#6A9DB6"/>
<stop offset="1" stop-color="#2E55AF"/>
</radialGradient>
<radialGradient id="paint3_radial" cx="0" cy="0" r="1" gradientUnits="userSpaceOnUse" gradientTransform="translate(158.609 45.0065) scale(51.1272 51.3476)">
<stop stop-color="#9CAD4C"/>
<stop offset="1" stop-color="#73633D"/>
</radialGradient>
<radialGradient id="paint4_radial" cx="0" cy="0" r="1" gradientUnits="userSpaceOnUse" gradientTransform="translate(103.901 45.3771) scale(104.926 105.378)">
<stop stop-color="#71BEE6"/>
<stop offset="1" stop-color="#3871E4"/>
</radialGradient>
<radialGradient id="paint5_radial" cx="0" cy="0" r="1" gradientUnits="userSpaceOnUse" gradientTransform="translate(110.468 46.16) scale(97.4356 97.8556)">
<stop stop-color="#FF3924"/>
<stop offset="1" stop-color="#FF0011"/>
</radialGradient>
<radialGradient id="paint6_radial" cx="0" cy="0" r="1" gradientUnits="userSpaceOnUse" gradientTransform="translate(103.439 70.1545) scale(67.2868 67.5767)">
<stop stop-color="#FDF240"/>
<stop offset="0.2407" stop-color="#FDDB3C"/>
<stop offset="0.7444" stop-color="#FCAF33"/>
<stop offset="1" stop-color="#FC9E30"/>
</radialGradient>
<linearGradient id="paint7_linear" x1="108.941" y1="38.4445" x2="197.532" y2="13.9269" gradientUnits="userSpaceOnUse">
<stop stop-color="#B2D25A"/>
<stop offset="0.2455" stop-color="#ACC457"/>
<stop offset="0.7116" stop-color="#9D9E51"/>
<stop offset="1" stop-color="#93834C"/>
</linearGradient>
<linearGradient id="paint8_linear" x1="107.041" y1="45.0566" x2="190.416" y2="99.86" gradientUnits="userSpaceOnUse">
<stop stop-color="#F9AB3E"/>
<stop offset="1" stop-color="#F7612D"/>
</linearGradient>
<radialGradient id="paint9_radial" cx="0" cy="0" r="1" gradientUnits="userSpaceOnUse" gradientTransform="translate(118.572 86.4606) scale(154.324 154.989)">
<stop stop-color="#563924"/>
<stop offset="1" stop-color="#110011"/>
</radialGradient>
<radialGradient id="paint10_radial" cx="0" cy="0" r="1" gradientUnits="userSpaceOnUse" gradientTransform="translate(104.842 47.4379) rotate(-64.6656) scale(150.23 149.822)">
<stop stop-color="#EDF7FB"/>
<stop offset="0.1904" stop-color="#EDF2FB"/>
<stop offset="0.4306" stop-color="#ECE2FB"/>
<stop offset="0.6976" stop-color="#EAC8FB"/>
<stop offset="0.9822" stop-color="#E7A4FB"/>
<stop offset="1" stop-color="#E7A2FB"/>
</radialGradient>
</defs>
</svg>
